<svg width="25" height="25" viewBox="0 0 25 25" fill="none" xmlns="http://www.w3.org/2000/svg">
<g clip-path="url(#clip0_183_1549)">
<path d="M5.20833 21.3542C4.2414 21.3542 3.31407 20.9701 2.63034 20.2863C1.94661 19.6026 1.5625 18.6753 1.5625 17.7083C1.5625 16.7414 1.94661 15.8141 2.63034 15.1303C3.31407 14.4466 4.2414 14.0625 5.20833 14.0625C6.17527 14.0625 7.1026 14.4466 7.78633 15.1303C8.47005 15.8141 8.85417 16.7414 8.85417 17.7083C8.85417 18.6753 8.47005 19.6026 7.78633 20.2863C7.1026 20.9701 6.17527 21.3542 5.20833 21.3542ZM5.20833 12.5C3.827 12.5 2.50224 13.0487 1.52549 14.0255C0.548733 15.0022 0 16.327 0 17.7083C0 19.0897 0.548733 20.4144 1.52549 21.3912C2.50224 22.3679 3.827 22.9167 5.20833 22.9167C6.58967 22.9167 7.91443 22.3679 8.89118 21.3912C9.86793 20.4144 10.4167 19.0897 10.4167 17.7083C10.4167 16.327 9.86793 15.0022 8.89118 14.0255C7.91443 13.0487 6.58967 12.5 5.20833 12.5ZM15.4167 10.4167H19.7917V8.54167H16.4583L14.4375 5.13542C14.1354 4.61458 13.5417 4.27083 12.9167 4.27083C12.4271 4.27083 11.9792 4.46875 11.6667 4.79167L7.8125 8.63542C7.48958 8.95833 7.29167 9.375 7.29167 9.89583C7.29167 10.5521 7.63542 11.1042 8.17708 11.4271L11.6667 13.5417V18.75H13.5417V11.9792L11.1979 10.2604L13.6146 7.8125M19.7917 21.3542C18.8247 21.3542 17.8974 20.9701 17.2137 20.2863C16.5299 19.6026 16.1458 18.6753 16.1458 17.7083C16.1458 16.7414 16.5299 15.8141 17.2137 15.1303C17.8974 14.4466 18.8247 14.0625 19.7917 14.0625C20.7586 14.0625 21.6859 14.4466 22.3697 15.1303C23.0534 15.8141 23.4375 16.7414 23.4375 17.7083C23.4375 18.6753 23.0534 19.6026 22.3697 20.2863C21.6859 20.9701 20.7586 21.3542 19.7917 21.3542ZM19.7917 12.5C18.4103 12.5 17.0856 13.0487 16.1088 14.0255C15.1321 15.0022 14.5833 16.327 14.5833 17.7083C14.5833 19.0897 15.1321 20.4144 16.1088 21.3912C17.0856 22.3679 18.4103 22.9167 19.7917 22.9167C20.4756 22.9167 21.1529 22.7819 21.7848 22.5202C22.4167 22.2585 22.9909 21.8748 23.4745 21.3912C23.9582 20.9075 24.3418 20.3334 24.6035 19.7015C24.8653 19.0696 25 18.3923 25 17.7083C25 17.0244 24.8653 16.3471 24.6035 15.7152C24.3418 15.0833 23.9582 14.5091 23.4745 14.0255C22.9909 13.5418 22.4167 13.1582 21.7848 12.8965C21.1529 12.6347 20.4756 12.5 19.7917 12.5ZM16.6667 5C17.7083 5 18.5417 4.16667 18.5417 3.125C18.5417 2.08333 17.7083 1.25 16.6667 1.25C15.625 1.25 14.7917 2.08333 14.7917 3.125C14.7917 4.16667 15.625 5 16.6667 5Z" fill="#EEEBFA"/>
</g>
<defs>
<clipPath id="clip0_183_1549">
<rect width="25" height="25" fill="white"/>
</clipPath>
</defs>
</svg>
