<svg width="25" height="25" viewBox="0 0 25 25" fill="none" xmlns="http://www.w3.org/2000/svg">
<path d="M14.6876 8.85417L12.5001 6.66667L10.3126 8.85417L8.85425 7.39583L11.0417 5.20833L8.85425 3.02083L10.3126 1.5625L12.5001 3.75L14.6876 1.5625L16.1459 3.02083L13.9584 5.20833L16.1459 7.39583L14.6876 8.85417ZM7.29175 18.75C8.43758 18.75 9.37508 19.6875 9.37508 20.8333C9.37508 21.9792 8.43758 22.9167 7.29175 22.9167C6.14592 22.9167 5.20842 21.9792 5.20842 20.8333C5.20842 19.6875 6.14592 18.75 7.29175 18.75ZM17.7084 18.75C18.8542 18.75 19.7917 19.6875 19.7917 20.8333C19.7917 21.9792 18.8542 22.9167 17.7084 22.9167C16.5626 22.9167 15.6251 21.9792 15.6251 20.8333C15.6251 19.6875 16.5626 18.75 17.7084 18.75ZM7.50008 15.4167C7.50008 15.5208 7.60425 15.625 7.70842 15.625H19.7917V17.7083H7.29175C6.14592 17.7083 5.20842 16.7708 5.20842 15.625C5.20842 15.2083 5.31258 14.8958 5.41675 14.5833L6.77092 12.0833L3.12508 4.16667H1.04175V2.08333H4.47925L8.95842 11.4583H16.2501L20.3126 4.16667L22.0834 5.20833L18.0209 12.5C17.7084 13.125 16.9792 13.5417 16.2501 13.5417H8.43758L7.50008 15.2083V15.4167Z" fill="#EEEBFA"/>
</svg>
