<svg width="25" height="25" viewBox="0 0 25 25" fill="none" xmlns="http://www.w3.org/2000/svg">
<path d="M19.5313 1.95312H5.46876C4.95076 1.95312 4.45397 2.1589 4.08769 2.52518C3.72141 2.89146 3.51563 3.38825 3.51563 3.90625V8.27051C3.51494 8.52709 3.56516 8.78125 3.66339 9.01828C3.76162 9.25531 3.90591 9.4705 4.0879 9.65137L5.07813 10.6445V21.0938C5.07813 21.6118 5.28391 22.1085 5.65019 22.4748C6.01647 22.8411 6.51326 23.0469 7.03126 23.0469H17.9688C18.4868 23.0469 18.9835 22.8411 19.3498 22.4748C19.7161 22.1085 19.9219 21.6118 19.9219 21.0938V10.6445L20.9121 9.6543C21.0945 9.47308 21.2389 9.25742 21.3372 9.01986C21.4354 8.7823 21.4855 8.52758 21.4844 8.27051V3.90625C21.4844 3.38825 21.2786 2.89146 20.9123 2.52518C20.546 2.1589 20.0493 1.95312 19.5313 1.95312ZM13.6719 20.7031H11.3281V14.8438C11.3281 14.5329 11.4516 14.2349 11.6714 14.0151C11.8911 13.7953 12.1892 13.6719 12.5 13.6719C12.8108 13.6719 13.1089 13.7953 13.3286 14.0151C13.5484 14.2349 13.6719 14.5329 13.6719 14.8438V20.7031ZM19.1406 8.10547L18.1504 9.09863C17.9684 9.2795 17.8241 9.49469 17.7259 9.73172C17.6277 9.96875 17.5774 10.2229 17.5781 10.4795V20.7031H16.0156V14.8438C16.0156 13.9113 15.6452 13.0171 14.9859 12.3578C14.3266 11.6985 13.4324 11.3281 12.5 11.3281C11.5676 11.3281 10.6734 11.6985 10.0141 12.3578C9.35478 13.0171 8.98438 13.9113 8.98438 14.8438V20.7031H7.42188V10.4795C7.42258 10.2229 7.37235 9.96875 7.27412 9.73172C7.17589 9.49469 7.0316 9.2795 6.84962 9.09863L5.85938 8.10547V4.29688H8.59376V6.64062C8.59376 6.95143 8.71722 7.2495 8.93699 7.46927C9.15676 7.68903 9.45483 7.8125 9.76563 7.8125C10.0764 7.8125 10.3745 7.68903 10.5943 7.46927C10.814 7.2495 10.9375 6.95143 10.9375 6.64062V4.29688H14.0625V6.64062C14.0625 6.95143 14.186 7.2495 14.4057 7.46927C14.6255 7.68903 14.9236 7.8125 15.2344 7.8125C15.5452 7.8125 15.8433 7.68903 16.063 7.46927C16.2828 7.2495 16.4063 6.95143 16.4063 6.64062V4.29688H19.1406V8.10547Z" fill="#EEEBFA"/>
</svg>
