<svg width="25" height="25" viewBox="0 0 25 25" fill="none" xmlns="http://www.w3.org/2000/svg">
<path d="M6.25008 2.08333H15.6251C16.1776 2.08333 16.7075 2.30282 17.0982 2.69352C17.4889 3.08422 17.7084 3.61413 17.7084 4.16666V5.20833C17.7084 5.4846 17.5987 5.74955 17.4033 5.9449C17.208 6.14025 16.943 6.25 16.6667 6.25C16.3905 6.25 16.1255 6.14025 15.9302 5.9449C15.7348 5.74955 15.6251 5.4846 15.6251 5.20833V4.16666H6.25008V20.8333H15.6251V19.7917C15.6251 19.5154 15.7348 19.2504 15.9302 19.0551C16.1255 18.8597 16.3905 18.75 16.6667 18.75C16.943 18.75 17.208 18.8597 17.4033 19.0551C17.5987 19.2504 17.7084 19.5154 17.7084 19.7917V20.8333C17.7084 21.3859 17.4889 21.9158 17.0982 22.3065C16.7075 22.6972 16.1776 22.9167 15.6251 22.9167H6.25008C5.69755 22.9167 5.16764 22.6972 4.77694 22.3065C4.38624 21.9158 4.16675 21.3859 4.16675 20.8333V4.16666C4.16675 3.61413 4.38624 3.08422 4.77694 2.69352C5.16764 2.30282 5.69755 2.08333 6.25008 2.08333Z" fill="#EEEBFA"/>
<path d="M17.4948 16.974C17.901 17.3802 18.5573 17.3802 18.9635 16.974L22.701 13.2365C22.8963 13.0411 23.006 12.7762 23.006 12.5C23.006 12.2238 22.8963 11.9589 22.701 11.7635L18.9635 8.02603C18.7655 7.84707 18.5063 7.75103 18.2395 7.75776C17.9727 7.7645 17.7187 7.8735 17.5299 8.06222C17.3412 8.25095 17.2322 8.50498 17.2255 8.7718C17.2187 9.03861 17.3148 9.29782 17.4938 9.49583L19.4479 11.4583H10.4167C10.1404 11.4583 9.87545 11.5681 9.6801 11.7634C9.48475 11.9588 9.375 12.2237 9.375 12.5C9.375 12.7763 9.48475 13.0412 9.6801 13.2366C9.87545 13.4319 10.1404 13.5417 10.4167 13.5417H19.4479L17.4938 15.5042C17.2993 15.6994 17.1902 15.9637 17.1904 16.2393C17.1906 16.5148 17.3001 16.779 17.4948 16.974Z" fill="#EEEBFA"/>
</svg>
