<svg width="25" height="25" viewBox="0 0 25 25" fill="none" xmlns="http://www.w3.org/2000/svg">
<path d="M9.6355 2.08333C9.8427 2.08333 10.0414 2.16564 10.1879 2.31215C10.3344 2.45866 10.4167 2.65738 10.4167 2.86458V5.46875C10.4167 5.67595 10.3344 5.87466 10.1879 6.02117C10.0414 6.16769 9.8427 6.25 9.6355 6.25C9.4283 6.25 9.22958 6.16769 9.08307 6.02117C8.93656 5.87466 8.85425 5.67595 8.85425 5.46875V2.86458C8.85425 2.65738 8.93656 2.45866 9.08307 2.31215C9.22958 2.16564 9.4283 2.08333 9.6355 2.08333ZM4.65633 4.13541C4.80282 3.98911 5.00138 3.90693 5.20841 3.90693C5.41545 3.90693 5.61401 3.98911 5.7605 4.13541L7.58341 5.95833C7.66017 6.02985 7.72174 6.1161 7.76444 6.21193C7.80714 6.30777 7.8301 6.41122 7.83195 6.51612C7.8338 6.62102 7.8145 6.72521 7.77521 6.82249C7.73592 6.91977 7.67743 7.00814 7.60325 7.08233C7.52906 7.15651 7.44069 7.215 7.34341 7.25429C7.24613 7.29358 7.14194 7.31288 7.03704 7.31103C6.93214 7.30918 6.82869 7.28622 6.73285 7.24352C6.63702 7.20082 6.55077 7.13925 6.47925 7.0625L4.65633 5.23958C4.51003 5.09309 4.42785 4.89453 4.42785 4.6875C4.42785 4.48046 4.51003 4.2819 4.65633 4.13541ZM14.6147 4.13541C14.761 4.2819 14.8431 4.48046 14.8431 4.6875C14.8431 4.89453 14.761 5.09309 14.6147 5.23958L12.7917 7.0625C12.7202 7.13925 12.634 7.20082 12.5381 7.24352C12.4423 7.28622 12.3389 7.30918 12.234 7.31103C12.1291 7.31288 12.0249 7.29358 11.9276 7.25429C11.8303 7.215 11.7419 7.15651 11.6677 7.08233C11.5936 7.00814 11.5351 6.91977 11.4958 6.82249C11.4565 6.72521 11.4372 6.62102 11.439 6.51612C11.4409 6.41122 11.4639 6.30777 11.5066 6.21193C11.5493 6.1161 11.6108 6.02985 11.6876 5.95833L13.5105 4.13541C13.657 3.98911 13.8555 3.90693 14.0626 3.90693C14.2696 3.90693 14.4682 3.98911 14.6147 4.13541ZM2.60425 9.11458C2.60425 8.90738 2.68656 8.70866 2.83307 8.56215C2.97958 8.41564 3.1783 8.33333 3.3855 8.33333H5.98966C6.19686 8.33333 6.39558 8.41564 6.54209 8.56215C6.6886 8.70866 6.77091 8.90738 6.77091 9.11458C6.77091 9.32178 6.6886 9.52049 6.54209 9.66701C6.39558 9.81352 6.19686 9.89583 5.98966 9.89583H3.3855C3.1783 9.89583 2.97958 9.81352 2.83307 9.66701C2.68656 9.52049 2.60425 9.32178 2.60425 9.11458ZM8.85425 9.88229C8.85425 8.70833 10.2313 8.075 11.122 8.83958L19.9355 16.3937C20.8834 17.2062 20.3438 18.7594 19.097 18.8104L15.097 18.9698C14.6667 18.9865 14.2626 19.1781 13.9751 19.4979L11.2522 22.5417C10.4115 23.4823 8.85425 22.8865 8.85425 21.625V9.88229Z" fill="#EEEBFA"/>
</svg>
