<svg width="25" height="25" viewBox="0 0 25 25" fill="none" xmlns="http://www.w3.org/2000/svg">
<path d="M18.75 22.9167C17.8819 22.9167 17.1441 22.6129 16.5365 22.0052C15.9288 21.3976 15.625 20.6597 15.625 19.7917C15.625 19.6701 15.6337 19.5441 15.651 19.4135C15.6684 19.283 15.6944 19.166 15.7292 19.0625L8.38542 14.7917C8.09028 15.0521 7.76042 15.2563 7.39583 15.4042C7.03125 15.5521 6.64931 15.6257 6.25 15.625C5.38194 15.625 4.6441 15.3212 4.03646 14.7135C3.42882 14.1059 3.125 13.3681 3.125 12.5C3.125 11.6319 3.42882 10.8941 4.03646 10.2865C4.6441 9.67882 5.38194 9.375 6.25 9.375C6.64931 9.375 7.03125 9.44896 7.39583 9.59688C7.76042 9.7448 8.09028 9.94861 8.38542 10.2083L15.7292 5.9375C15.6944 5.83334 15.6684 5.71632 15.651 5.58646C15.6337 5.4566 15.625 5.33056 15.625 5.20834C15.625 4.34028 15.9288 3.60243 16.5365 2.99479C17.1441 2.38716 17.8819 2.08334 18.75 2.08334C19.6181 2.08334 20.3559 2.38716 20.9635 2.99479C21.5712 3.60243 21.875 4.34028 21.875 5.20834C21.875 6.07639 21.5712 6.81424 20.9635 7.42188C20.3559 8.02952 19.6181 8.33334 18.75 8.33334C18.3507 8.33334 17.9687 8.25973 17.6042 8.1125C17.2396 7.96528 16.9097 7.76111 16.6146 7.5L9.27083 11.7708C9.30555 11.875 9.3316 11.9924 9.34896 12.1229C9.36632 12.2535 9.375 12.3792 9.375 12.5C9.375 12.6215 9.36632 12.7476 9.34896 12.8781C9.3316 13.0087 9.30555 13.1257 9.27083 13.2292L16.6146 17.5C16.9097 17.2396 17.2396 17.0358 17.6042 16.8885C17.9687 16.7413 18.3507 16.6674 18.75 16.6667C19.6181 16.6667 20.3559 16.9705 20.9635 17.5781C21.5712 18.1858 21.875 18.9236 21.875 19.7917C21.875 20.6597 21.5712 21.3976 20.9635 22.0052C20.3559 22.6129 19.6181 22.9167 18.75 22.9167ZM18.75 6.25C19.0451 6.25 19.2927 6.15 19.4927 5.95C19.6927 5.75 19.7924 5.50278 19.7917 5.20834C19.7917 4.9132 19.6917 4.66563 19.4917 4.46563C19.2917 4.26563 19.0444 4.16597 18.75 4.16667C18.4549 4.16667 18.2073 4.26667 18.0073 4.46667C17.8073 4.66667 17.7076 4.91389 17.7083 5.20834C17.7083 5.50347 17.8083 5.75104 18.0083 5.95104C18.2083 6.15104 18.4556 6.2507 18.75 6.25ZM6.25 13.5417C6.54514 13.5417 6.79271 13.4417 6.99271 13.2417C7.19271 13.0417 7.29236 12.7944 7.29167 12.5C7.29167 12.2049 7.19167 11.9573 6.99167 11.7573C6.79167 11.5573 6.54444 11.4576 6.25 11.4583C5.95486 11.4583 5.70729 11.5583 5.50729 11.7583C5.30729 11.9583 5.20764 12.2056 5.20833 12.5C5.20833 12.7951 5.30833 13.0427 5.50833 13.2427C5.70833 13.4427 5.95556 13.5424 6.25 13.5417ZM18.75 20.8333C19.0451 20.8333 19.2927 20.7333 19.4927 20.5333C19.6927 20.3333 19.7924 20.0861 19.7917 19.7917C19.7917 19.4965 19.6917 19.249 19.4917 19.049C19.2917 18.849 19.0444 18.7493 18.75 18.75C18.4549 18.75 18.2073 18.85 18.0073 19.05C17.8073 19.25 17.7076 19.4972 17.7083 19.7917C17.7083 20.0868 17.8083 20.3344 18.0083 20.5344C18.2083 20.7344 18.4556 20.834 18.75 20.8333Z" fill="#EEEBFA"/>
</svg>
