<svg width="97" height="50" viewBox="0 0 97 50" fill="none" xmlns="http://www.w3.org/2000/svg">
<path d="M48.1 0.962C54.689 0.962 61.277 1.192 61.738 1.654C62.241 2.16 62.468 7.664 62.425 12.724C62.469 17.785 62.241 23.299 61.738 23.804C61.276 24.263 54.678 24.495 48.081 24.495C41.492 24.495 34.905 24.263 34.443 23.804C33.941 23.3 33.713 17.794 33.756 12.734C33.713 7.671 33.94 2.158 34.443 1.654C34.904 1.192 41.503 0.962 48.1 0.962ZM48.1 0C34.737 0 34.05 0.683 33.763 0.974C33.059 1.676 32.734 5.635 32.794 12.739C32.734 19.824 33.059 23.779 33.761 24.486C34.054 24.777 34.738 25.459 48.08 25.459C61.439 25.459 62.12 24.779 62.415 24.488C63.123 23.779 63.448 19.82 63.386 12.719C63.448 5.64 63.123 1.679 62.42 0.975C62.125 0.683 61.443 0 48.1 0Z" fill="#D1D1D1"/>
<path d="M47.808 25.504C54.401 25.504 60.995 25.736 61.456 26.197C61.959 26.697 62.184 32.207 62.143 37.267C62.184 42.331 61.959 47.845 61.456 48.347C60.994 48.81 54.396 49.04 47.808 49.04C41.216 49.04 34.621 48.81 34.161 48.347C33.659 47.847 33.432 42.337 33.474 37.277C33.431 32.215 33.658 26.701 34.161 26.197C34.622 25.736 41.211 25.504 47.808 25.504ZM47.808 24.543C34.454 24.543 33.768 25.229 33.48 25.52C32.779 26.217 32.453 30.176 32.513 37.282C32.453 44.368 32.778 48.322 33.482 49.026C33.771 49.316 34.455 50 47.808 50C61.161 50 61.848 49.316 62.136 49.023C62.836 48.326 63.163 44.365 63.104 37.257C63.163 30.169 62.836 26.217 62.134 25.517C61.844 25.227 61.161 24.543 47.808 24.543Z" fill="#D1D1D1"/>
<path d="M15.303 25.504C21.896 25.504 28.49 25.736 28.952 26.197C29.455 26.697 29.682 32.207 29.638 37.267C29.683 42.331 29.456 47.843 28.952 48.347C28.49 48.81 21.892 49.04 15.303 49.04C8.71001 49.04 2.11601 48.81 1.65401 48.347C1.15201 47.847 0.925006 42.337 0.967006 37.277C0.925006 32.215 1.15201 26.701 1.65401 26.197C2.11601 25.736 8.71401 25.504 15.303 25.504ZM15.303 24.543C1.94801 24.543 1.26301 25.229 0.973006 25.52C0.274006 26.215 -0.0529938 30.174 0.00600625 37.282C-0.0539938 44.368 0.273006 48.322 0.974006 49.026C1.26601 49.316 1.94901 50 15.303 50C28.657 50 29.343 49.316 29.632 49.023C30.337 48.322 30.663 44.363 30.599 37.259C30.663 30.173 30.336 26.219 29.63 25.515C29.341 25.227 28.657 24.543 15.303 24.543Z" fill="#D1D1D1"/>
<path d="M80.88 25.504C87.473 25.504 94.067 25.736 94.529 26.197C95.031 26.697 95.259 32.207 95.215 37.267C95.26 42.331 95.031 47.843 94.529 48.347C94.067 48.81 87.469 49.04 80.88 49.04C74.287 49.04 67.693 48.81 67.234 48.347C66.73 47.847 66.502 42.337 66.546 37.277C66.501 32.215 66.73 26.701 67.234 26.197C67.693 25.736 74.284 25.504 80.88 25.504ZM80.88 24.543C67.526 24.543 66.84 25.229 66.552 25.522C65.848 26.219 65.521 30.178 65.584 37.284C65.521 44.366 65.847 48.324 66.556 49.026C66.844 49.316 67.526 50 80.88 50C94.234 50 94.92 49.316 95.209 49.023C95.913 48.32 96.238 44.363 96.177 37.259C96.239 30.173 95.913 26.219 95.207 25.517C94.917 25.227 94.232 24.543 80.88 24.543Z" fill="#D1D1D1"/>
<path d="M61.74 4.15934C60.815 3.23334 35.367 3.23334 34.44 4.15934C33.519 5.08234 33.517 22.8813 34.44 23.8073C35.365 24.7293 60.811 24.7273 61.74 23.8073C62.662 22.8833 62.662 5.08234 61.74 4.15934Z" fill="#E3E3E3"/>
<path d="M61.46 28.6991C60.535 27.7731 35.087 27.7751 34.16 28.6991C33.239 29.6171 33.239 47.4241 34.16 48.3441C35.083 49.2701 60.533 49.2701 61.46 48.3441C62.381 47.4241 62.381 29.6191 61.46 28.6991Z" fill="#E3E3E3"/>
<path d="M28.952 28.6991C28.027 27.7731 2.57799 27.7751 1.65399 28.6991C0.731994 29.6171 0.731994 47.4241 1.65399 48.3441C2.57799 49.2701 28.027 49.2701 28.952 48.3441C29.875 47.4241 29.875 29.6191 28.952 28.6991Z" fill="#E3E3E3"/>
<path d="M94.53 28.6991C93.603 27.7731 68.156 27.7751 67.23 28.6991C66.308 29.6171 66.306 47.4241 67.23 48.3441C68.154 49.2701 93.601 49.2701 94.53 48.3441C95.452 47.4241 95.454 29.6191 94.53 28.6991Z" fill="#E3E3E3"/>
<path d="M61.74 1.65416C60.815 0.730164 35.367 0.732164 34.44 1.65416C33.519 2.57616 33.517 20.3812 34.44 21.3012C35.365 22.2272 60.811 22.2272 61.74 21.3012C62.662 20.3812 62.662 2.57816 61.74 1.65416Z" fill="white"/>
<path d="M61.46 26.2003C60.535 25.2763 35.087 25.2763 34.16 26.2003C33.239 27.1223 33.239 44.9233 34.16 45.8453C35.083 46.7713 60.533 46.7693 61.46 45.8453C62.381 44.9253 62.381 27.1223 61.46 26.2003Z" fill="white"/>
<path d="M28.952 26.2003C28.027 25.2763 2.57799 25.2763 1.65399 26.2003C0.731994 27.1223 0.731994 44.9233 1.65399 45.8453C2.57799 46.7713 28.027 46.7693 28.952 45.8453C29.875 44.9253 29.875 27.1223 28.952 26.2003Z" fill="white"/>
<path d="M94.53 26.2003C93.603 25.2763 68.156 25.2763 67.23 26.2003C66.308 27.1223 66.306 44.9233 67.23 45.8453C68.154 46.7713 93.601 46.7693 94.53 45.8453C95.452 44.9253 95.454 27.1223 94.53 26.2003Z" fill="white"/>
<path d="M47.871 10.0504L46.4 16.1704H45.31L42.831 7.67236H44.33L45.831 13.6924L47.29 7.67236H48.46L49.922 13.7024L51.44 7.67236H52.952L50.47 16.1704H49.38L47.871 10.0504Z" fill="#A0A0A0"/>
<path d="M19.19 40.5453H17.704L17.096 38.8033H13.516L12.906 40.5453H11.421L14.593 32.0513H16.008L19.19 40.5453ZM13.925 37.6153H16.672L15.301 33.6933L13.925 37.6153Z" fill="#A0A0A0"/>
<path d="M45.623 38.6109C45.623 38.6109 46.542 39.4309 47.802 39.4309C48.775 39.4309 49.191 38.9509 49.191 38.2529C49.191 37.6079 48.906 37.2799 47.505 36.8139C45.736 36.2499 44.929 35.6109 44.929 34.2809C44.929 32.8239 45.929 31.8589 47.815 31.8589C49.771 31.8589 50.548 32.7259 50.548 32.7259L49.782 33.8689C49.782 33.8689 49.046 33.1639 47.814 33.1639C46.965 33.1639 46.487 33.5429 46.487 34.2229C46.487 34.8049 46.84 35.0859 48.126 35.5139C50.04 36.0919 50.76 36.8399 50.76 38.1589C50.76 39.6039 49.796 40.7349 47.846 40.7349C45.821 40.7349 44.86 39.6739 44.86 39.6739L45.623 38.6109Z" fill="#A0A0A0"/>
<path d="M80.37 40.2601H77.566V31.7681H80.37C82.804 31.7681 84.362 33.4831 84.362 36.0161C84.362 38.5491 82.804 40.2601 80.37 40.2601ZM78.969 33.0161V39.0161H80.271C81.772 39.0161 82.933 37.8971 82.933 36.0161C82.933 34.0921 81.772 33.0161 80.271 33.0161H78.969Z" fill="#A0A0A0"/>
</svg>
