<svg width="200" height="50" viewBox="0 0 200 50" fill="none" xmlns="http://www.w3.org/2000/svg">
<path d="M195.14 4.95068C191.211 2.95068 8.75173 2.95068 4.8228 4.95068C0.893865 6.95068 0.893865 45.5347 4.8228 47.5367C8.75173 49.5367 191.211 49.5367 195.14 47.5367C199.069 45.5367 199.069 6.95168 195.14 4.95068Z" fill="#E3E3E3"/>
<path d="M195.14 2.46484C191.211 0.464844 8.75173 0.464844 4.8228 2.46484C0.893865 4.46284 0.893865 43.0468 4.8228 45.0508C8.75173 47.0508 191.211 47.0508 195.14 45.0508C199.069 43.0508 199.069 4.46484 195.14 2.46484Z" fill="white"/>
<path d="M100.015 0.961023C146.602 0.961023 193.19 1.46302 195.154 2.46502C197.199 3.50602 198.179 14.447 198.095 24.988C198.179 35.535 197.199 46.495 195.154 47.537C193.19 48.537 146.567 49.039 99.9561 49.039C53.3726 49.039 6.80099 48.539 4.83653 47.537C2.78759 46.495 1.80928 35.549 1.89965 25.008C1.80928 14.458 2.78759 3.50602 4.83653 2.46502C6.80099 1.46502 53.4178 0.961023 100.035 0.961023M100.035 2.34375e-05C75.6792 2.34375e-05 52.8088 0.135023 35.6433 0.375023C5.43176 0.803023 4.31594 1.37102 3.50462 1.78502C0.100195 3.51602 -0.0274956 20 0.0157227 25.015C-0.0255312 30.015 0.100195 46.49 3.50462 48.215C4.31987 48.629 5.4298 49.197 35.6217 49.623C52.7715 49.865 75.6242 49.998 99.9698 49.998C124.329 49.998 147.196 49.865 164.363 49.623C194.575 49.195 195.687 48.629 196.502 48.215C199.902 46.481 200.038 29.994 199.995 24.985C200.036 19.988 199.902 3.52002 196.502 1.78502C195.687 1.37102 194.575 0.803023 164.383 0.375023C147.237 0.134023 124.384 -0.000976562 100.035 -0.000976562" fill="#D1D1D1"/>
</svg>
