<svg width="57" height="42" viewBox="0 0 57 42" fill="none" xmlns="http://www.w3.org/2000/svg">
<path d="M28.1705 40.952C27.7405 40.952 27.0905 40.9427 26.4205 40.8957C23.1194 40.6689 20.3343 39.5295 18.1393 37.5069C16.8123 36.2827 15.1193 34.1541 14.5982 30.9727C14.5332 30.5662 14.4842 30.1467 14.4532 29.6867C14.4052 28.9612 14.4052 23.5885 14.4052 23.4964C14.4052 23.1995 14.4052 14.9635 14.4532 14.25C14.4832 13.7946 14.5302 13.3761 14.5982 12.9704C15.1173 9.78631 16.8123 7.65495 18.1393 6.42978C20.3343 4.40812 23.1194 3.26777 26.4205 3.04007C27.0875 2.99305 27.7385 2.98291 28.1685 2.98291C28.5995 2.98291 29.2495 2.99305 29.9165 3.04007C33.2186 3.26961 36.0046 4.41089 38.1987 6.4307C39.5277 7.65587 41.2187 9.78723 41.7397 12.9695C41.8047 13.3742 41.8537 13.7955 41.8837 14.2546C41.9327 14.9672 41.9327 23.2032 41.9327 23.501C41.9327 23.5904 41.9327 28.9594 41.8837 29.6886C41.8547 30.1541 41.8057 30.5745 41.7397 30.9773C41.2207 34.1569 39.5277 36.2855 38.1987 37.5115C36.0046 39.5332 33.2186 40.6736 29.9165 40.9003C29.2485 40.9474 28.5995 40.9566 28.1705 40.9566" fill="#E3E3E3"/>
<path d="M28.1705 38.8797C27.7405 38.8797 27.0905 38.8705 26.4205 38.8235C23.1194 38.5949 20.3343 37.4555 18.1393 35.4329C16.8123 34.2086 15.1193 32.08 14.5982 28.8987C14.5332 28.493 14.4842 28.0727 14.4532 27.6145C14.4052 26.8871 14.4052 21.5136 14.4052 21.4241C14.4052 21.1273 14.4052 12.8913 14.4532 12.1686C14.4832 11.7141 14.5302 11.2937 14.5982 10.8899C15.1173 7.70672 16.8123 5.57536 18.1393 4.34927C20.3343 2.32853 23.1194 1.18541 26.4205 0.960476C27.0875 0.912539 27.7385 0.90332 28.1685 0.90332C28.5995 0.90332 29.2495 0.912539 29.9165 0.960476C33.2186 1.18818 36.0046 2.33037 38.1987 4.35111C39.5277 5.5772 41.2187 7.70856 41.7397 10.8899C41.8047 11.2946 41.8537 11.715 41.8837 12.1741C41.9327 12.8886 41.9327 21.1245 41.9327 21.4205C41.9327 21.5099 41.9327 26.8798 41.8837 27.608C41.8547 28.0736 41.8057 28.4958 41.7397 28.8968C41.2207 32.0764 39.5277 34.2068 38.1987 35.431C36.0046 37.4527 33.2186 38.593 29.9165 38.8217C29.2485 38.8687 28.5995 38.877 28.1705 38.877" fill="white"/>
<path d="M28.1603 0.910862C28.5913 0.910862 29.2413 0.920081 29.9083 0.968018C33.2103 1.19295 35.9964 2.33515 38.1904 4.35589C39.5195 5.58198 41.2105 7.71334 41.7315 10.8947C41.7965 11.2994 41.8455 11.7198 41.8755 12.1789C41.9245 12.8933 41.9275 21.1293 41.9275 21.4252C41.9275 21.4474 41.9275 21.7728 41.9245 22.2614C41.9245 22.9509 41.9275 23.4321 41.9275 23.4976C41.9275 23.587 41.9245 28.956 41.8755 29.6852C41.8445 30.1507 41.7975 30.5711 41.7315 30.974C41.2125 34.1535 39.5195 36.2821 38.1904 37.5082C35.9964 39.5298 33.2103 40.6702 29.9103 40.897C29.2413 40.944 28.5913 40.9532 28.1623 40.9532C27.7323 40.9532 27.0822 40.944 26.4122 40.897C23.1112 40.6702 20.3261 39.5308 18.1311 37.5082C16.8061 36.2839 15.111 34.1553 14.59 30.974C14.525 30.5674 14.476 30.148 14.446 29.6879C14.397 28.9624 14.394 23.5898 14.394 23.4976C14.394 23.4312 14.397 22.9325 14.397 22.2134C14.397 21.7562 14.394 21.4474 14.394 21.4262C14.394 21.1293 14.397 12.8933 14.446 12.1706C14.475 11.7161 14.524 11.2957 14.59 10.8919C15.109 7.70873 16.8041 5.57737 18.1311 4.35128C20.3261 2.33054 23.1112 1.18742 26.4122 0.962487C27.0792 0.917315 27.7302 0.908096 28.1603 0.908096M28.1603 0.00374219C27.5022 0.00374219 26.8892 0.0221796 26.3382 0.0608981C22.8012 0.304272 19.8051 1.53405 17.4401 3.71427C16.004 5.03715 14.176 7.33353 13.621 10.7592C13.55 11.1971 13.501 11.6405 13.468 12.118C13.414 12.8813 13.414 21.0777 13.414 21.4197L13.415 22.207L13.414 23.3741V23.4911C13.414 23.5474 13.414 28.9661 13.468 29.7396C13.499 30.1977 13.548 30.6439 13.621 31.0993C14.18 34.5232 16.007 36.8168 17.4401 38.1406C19.8031 40.3199 22.7992 41.5469 26.3402 41.7903C27.0372 41.8391 27.7142 41.8493 28.1623 41.8493C28.6073 41.8493 29.2873 41.8391 29.9853 41.7893C33.5224 41.546 36.5174 40.319 38.8824 38.1397C40.3175 36.8158 42.1425 34.5204 42.7005 31.1003C42.7685 30.6854 42.8175 30.2383 42.8535 29.7359C42.9065 28.9578 42.9065 23.5455 42.9065 23.4902V23.375L42.9045 22.2531L42.9065 21.4169C42.9065 21.0694 42.9065 12.8777 42.8535 12.1153C42.8215 11.6396 42.7715 11.1943 42.7005 10.7546C42.1415 7.32708 40.3165 5.03162 38.8824 3.7115C36.5164 1.53128 33.5223 0.301506 29.9823 0.0581325C29.4333 0.019414 28.8183 0.000976562 28.1603 0.000976562" fill="#D1D1D1"/>
<path opacity="0.5" d="M28.9065 0.916176C28.6625 0.912488 28.4135 0.910645 28.1645 0.910645C27.9145 0.910645 27.6675 0.912488 27.4235 0.916176V14.7719H28.9065V0.916176Z" fill="#A0A0A0"/>
<path d="M28.1705 18.3938C27.9245 18.3938 27.6885 18.3864 27.5015 18.3754C27.2175 18.356 26.6865 18.3173 26.2565 17.9227C25.8884 17.5826 25.8224 17.1769 25.8004 17.047C25.7834 16.9529 25.7724 16.8451 25.7654 16.7197C25.7514 16.527 25.7444 15.4134 25.7444 15.159C25.7444 14.9045 25.7524 10.8898 25.7654 10.699C25.7724 10.5699 25.7844 10.463 25.8004 10.3717C25.8224 10.238 25.8884 9.83333 26.2565 9.49316C26.6865 9.09768 27.2175 9.06172 27.5015 9.04328C27.6885 9.02761 27.9245 9.02393 28.1685 9.02393C28.4145 9.02393 28.6495 9.02854 28.8365 9.04328C29.1215 9.06264 29.6545 9.0986 30.0825 9.49316C30.4475 9.83333 30.5185 10.239 30.5375 10.3717C30.5525 10.4639 30.5655 10.5708 30.5725 10.699C30.5865 10.8898 30.5935 14.9045 30.5935 15.159C30.5935 15.4134 30.5855 16.527 30.5725 16.7197C30.5655 16.846 30.5515 16.9539 30.5375 17.047C30.5175 17.1779 30.4475 17.5826 30.0825 17.9227C29.6545 18.3173 29.1215 18.356 28.8365 18.3754C28.6505 18.3864 28.4145 18.3938 28.1705 18.3938Z" fill="#A0A0A0"/>
<g opacity="0.7">
<path d="M47.5008 27.4324C50.8819 25.4716 53.8249 23.2011 56.335 20.9333C53.8249 18.6627 50.8819 16.3931 47.5008 14.4341C47.1458 18.7549 47.1458 23.1245 47.5008 27.4417" fill="#71C3EA"/>
<path d="M8.83315 14.4277C5.45309 16.3913 2.50804 18.6609 0 20.9269C2.50804 23.1974 5.45309 25.468 8.83315 27.426C9.18916 23.1098 9.18916 18.7402 8.83315 14.4185" fill="#71C3EA"/>
</g>
</svg>
