<svg width="48" height="51" viewBox="0 0 48 51" fill="none" xmlns="http://www.w3.org/2000/svg">
<path d="M45.04 5.94922C43.04 3.94922 4.45697 3.94922 2.45497 5.94922C0.456969 7.94922 0.454969 46.5352 2.45497 48.5352C4.45497 50.5352 43.039 50.5352 45.04 48.5352C47.04 46.5372 47.04 7.95322 45.04 5.94922Z" fill="#E3E3E3"/>
<path d="M45.04 3.46338C43.04 1.46338 4.45697 1.46338 2.45497 3.46338C0.456969 5.46138 0.454969 44.0474 2.45497 46.0474C4.45497 48.0574 43.039 48.0474 45.04 46.0474C47.04 44.0514 47.04 5.46438 45.04 3.46338Z" fill="white"/>
<path d="M23.758 1.96226C33.9 1.96226 44.042 2.46226 45.043 3.46326C46.086 4.50526 46.583 15.4513 46.54 25.9923C46.583 36.5393 46.086 47.4963 45.043 48.5353C44.043 49.5353 33.892 50.0373 23.744 50.0373C13.601 50.0373 3.45898 49.5373 2.45798 48.5353C1.41698 47.4963 0.919984 36.5553 0.963984 26.0123C0.919984 15.4653 1.41698 4.50526 2.45798 3.46326C3.45798 2.46326 13.61 1.96226 23.758 1.96226ZM23.758 1.00026C17.686 1.00026 3.38898 1.17326 1.77798 2.78126C0.0469842 4.51626 -0.019016 21.0043 0.00198395 26.0113C-0.019016 31.0093 0.0469842 47.4803 1.77798 49.2113C3.38898 50.8203 17.677 50.9963 23.745 50.9963C29.817 50.9963 44.115 50.8203 45.724 49.2113C47.455 47.4843 47.523 30.9983 47.502 25.9813C47.523 20.9813 47.455 4.50626 45.724 2.77126C44.115 1.16226 29.827 0.989258 23.758 0.989258" fill="#D1D1D1"/>
</svg>
