<svg width="77" height="50" viewBox="0 0 77 50" fill="none" xmlns="http://www.w3.org/2000/svg">
<path d="M74.06 4.94787C72.06 2.94787 4.46 2.94887 2.46 4.94787C0.462004 6.94787 0.460004 45.5369 2.46 47.5349C4.46 49.5449 72.06 49.5349 74.06 47.5349C76.06 45.5389 76.06 6.95287 74.06 4.94787Z" fill="#E3E3E3"/>
<path d="M74.06 2.46289C72.06 0.462891 4.46 0.462891 2.46 2.46289C0.462004 4.45989 0.460004 43.0469 2.46 45.0489C4.46 47.0489 72.06 47.0489 74.06 45.0489C76.06 43.0509 76.06 4.46289 74.06 2.46289Z" fill="white"/>
<path d="M20.323 37.965H12.328C11.985 37.965 11.708 37.688 11.708 37.346V31.993C11.622 31.988 11.536 31.985 11.446 31.982C10.653 31.949 9.75199 31.91 9.12399 31.865C8.90499 31.849 8.71 31.719 8.614 31.521C8.516 31.324 8.527 31.089 8.647 30.905C10.622 27.885 13.057 24.941 15.889 22.158C16.131 21.918 16.52 21.918 16.76 22.158C19.592 24.941 22.028 27.885 24 30.905C24.123 31.09 24.137 31.324 24.037 31.521C23.941 31.716 23.746 31.849 23.527 31.865C22.9 31.91 22 31.949 21.205 31.982C21.114 31.985 21.028 31.988 20.943 31.993V37.346C20.944 37.688 20.665 37.965 20.323 37.965ZM12.952 36.723H19.702V31.395C19.702 31.065 19.962 30.795 20.294 30.776C20.542 30.764 20.838 30.751 21.155 30.737C21.546 30.722 21.965 30.708 22.36 30.688C20.655 28.208 18.631 25.791 16.33 23.477C14.025 25.791 11.998 28.207 10.3 30.688C10.696 30.708 11.114 30.722 11.507 30.737C11.821 30.751 12.114 30.764 12.364 30.776C12.696 30.796 12.958 31.065 12.958 31.395V36.723" fill="#A0A0A0"/>
<path d="M38.27 0.961C55.666 0.961 73.059 1.461 74.061 2.463C75.104 3.504 75.602 14.451 75.555 24.993C75.602 35.539 75.104 46.496 74.061 47.535C73.061 48.535 55.652 49.039 38.247 49.039C20.851 49.039 3.46001 48.537 2.45801 47.535C1.41601 46.496 0.919005 35.549 0.964005 25.006C0.919005 14.459 1.41601 3.504 2.45701 2.463C3.45701 1.463 20.865 0.961 38.27 0.961ZM38.27 0C29.18 0 20.625 0.133 14.18 0.375C2.75701 0.807 2.17001 1.393 1.77901 1.783C0.0470055 3.52 -0.0179945 20 0.00400551 25.013C-0.0169945 30.013 0.0470055 46.486 1.77901 48.223C2.16801 48.614 2.75701 49.202 14.17 49.631C20.611 49.874 29.162 50.008 38.25 50.008C47.34 50.008 55.897 49.874 62.34 49.631C73.761 49.201 74.35 48.613 74.739 48.223C76.473 46.494 76.538 30.01 76.514 24.993C76.537 19.993 76.473 3.52 74.739 1.793C74.349 1.402 73.76 0.814 62.348 0.385C55.907 0.143 47.355 0.01 38.268 0.01" fill="#D1D1D1"/>
</svg>
