<svg width="25" height="25" viewBox="0 0 25 25" fill="none" xmlns="http://www.w3.org/2000/svg">
<g clip-path="url(#clip0_235_9886)">
<path fill-rule="evenodd" clip-rule="evenodd" d="M23.62 0H1.38C0.6175 0 0 0.6175 0 1.38V23.62C0 24.3825 0.6175 25 1.38 25H13.3525V15.3188H10.095V11.5463H13.3525V8.7625C13.3525 5.5325 15.325 3.775 18.2062 3.775C19.5863 3.775 20.7712 3.8775 21.1175 3.92375V7.29875H19.12C17.5525 7.29875 17.25 8.04375 17.25 9.13625V11.545H20.9862L20.4988 15.3175H17.2487V25H23.62C24.3825 25 25 24.3825 25 23.62V1.38C25 0.6175 24.3825 0 23.62 0Z" fill="#F4EAFB"/>
</g>
<defs>
<clipPath id="clip0_235_9886">
<rect width="25" height="25" fill="white"/>
</clipPath>
</defs>
</svg>
