<svg width="25" height="25" viewBox="0 0 25 25" fill="none" xmlns="http://www.w3.org/2000/svg">
<g clip-path="url(#clip0_183_1544)">
<path d="M5 0C2.23858 0 0 2.23858 0 5V20C0 22.7614 2.23858 25 5 25H20C22.7614 25 25 22.7614 25 20V5C25 2.23858 22.7614 0 20 0H5ZM20.3125 6.875C15.625 6.875 15.1562 10.9375 15.1562 10.9375H17.1875V14.0625H13.4375C10.625 23.125 4.6875 21.875 4.6875 21.875V17.9688C4.6875 17.9688 8.59375 18.9062 10.7812 11.7188C13.5938 2.1875 20.3125 3.125 20.3125 3.125V6.875Z" fill="#EEEBFA"/>
</g>
<defs>
<clipPath id="clip0_183_1544">
<rect width="25" height="25" fill="white"/>
</clipPath>
</defs>
</svg>
