<svg width="25" height="25" viewBox="0 0 25 25" fill="none" xmlns="http://www.w3.org/2000/svg">
<g clip-path="url(#clip0_187_787)">
<path fill-rule="evenodd" clip-rule="evenodd" d="M8.965 14.1675L12.5025 16.5863L15.9125 14.2338L23.5562 21.775C23.355 21.84 23.14 21.875 22.9163 21.875H2.08375C1.80875 21.875 1.54625 21.8212 1.305 21.725L8.965 14.1675ZM25 7.97V19.7913C25 20.1 24.9325 20.3925 24.8125 20.6562L17.32 13.2638L25 7.97ZM1.1795e-06 8.03625L7.5525 13.2013L0.132501 20.5238C0.0446209 20.2895 -0.000265292 20.0414 1.1795e-06 19.7913V8.03625ZM22.9163 3.125C24.0662 3.125 25 4.0575 25 5.20875V5.94125L12.4975 14.56L1.1795e-06 6.0125V5.20875C1.1795e-06 4.05875 0.932501 3.125 2.08375 3.125H22.9163Z" fill="#EEEBFA"/>
</g>
<defs>
<clipPath id="clip0_187_787">
<rect width="25" height="25" fill="white"/>
</clipPath>
</defs>
</svg>
