<svg width="25" height="25" viewBox="0 0 25 25" fill="none" xmlns="http://www.w3.org/2000/svg">
<path fill-rule="evenodd" clip-rule="evenodd" d="M8.33325 13.5417C7.50445 13.5417 6.70959 13.2124 6.12354 12.6264C5.53749 12.0403 5.20825 11.2455 5.20825 10.4167C5.20825 9.58785 5.53749 8.793 6.12354 8.20695C6.70959 7.6209 7.50445 7.29166 8.33325 7.29166C9.16205 7.29166 9.95691 7.6209 10.543 8.20695C11.129 8.793 11.4583 9.58785 11.4583 10.4167C11.4583 11.2455 11.129 12.0403 10.543 12.6264C9.95691 13.2124 9.16205 13.5417 8.33325 13.5417ZM16.6666 13.5417C15.8378 13.5417 15.0429 13.2124 14.4569 12.6264C13.8708 12.0403 13.5416 11.2455 13.5416 10.4167C13.5416 9.58785 13.8708 8.793 14.4569 8.20695C15.0429 7.6209 15.8378 7.29166 16.6666 7.29166C17.4954 7.29166 18.2902 7.6209 18.8763 8.20695C19.4623 8.793 19.7916 9.58785 19.7916 10.4167C19.7916 11.2455 19.4623 12.0403 18.8763 12.6264C18.2902 13.2124 17.4954 13.5417 16.6666 13.5417ZM8.33325 15.625C9.51572 15.6236 10.6849 15.8745 11.7627 16.3609C12.8405 16.8474 13.8021 17.5581 14.5833 18.4458V19.7917H2.08325V18.4458C2.86445 17.5581 3.82605 16.8474 4.90383 16.3609C5.98162 15.8745 7.15078 15.6236 8.33325 15.625ZM16.6666 19.7917V17.6583L16.1458 17.0677C15.7482 16.6169 15.3125 16.2011 14.8437 15.825C15.4421 15.6917 16.0535 15.6246 16.6666 15.625C17.8491 15.6236 19.0182 15.8745 20.096 16.3609C21.1738 16.8474 22.1354 17.5581 22.9166 18.4458V19.7917H16.6666Z" fill="#EEEBFA"/>
</svg>
