<svg width="25" height="25" viewBox="0 0 25 25" fill="none" xmlns="http://www.w3.org/2000/svg">
<path d="M22.8994 10.8467L8.8291 2.24023C8.53403 2.06035 8.19651 1.96197 7.851 1.95515C7.50548 1.94833 7.16434 2.03331 6.8624 2.20141C6.56046 2.36951 6.30852 2.61471 6.13231 2.91199C5.9561 3.20927 5.86191 3.54798 5.85938 3.89355V21.1064C5.86191 21.452 5.9561 21.7907 6.13231 22.088C6.30852 22.3853 6.56046 22.6305 6.8624 22.7986C7.16434 22.9667 7.50548 23.0517 7.851 23.0448C8.19651 23.038 8.53403 22.9396 8.8291 22.7598L22.8994 14.1533C23.1831 13.9806 23.4176 13.7378 23.5803 13.4483C23.7431 13.1587 23.8285 12.8321 23.8285 12.5C23.8285 12.1679 23.7431 11.8413 23.5803 11.5517C23.4176 11.2622 23.1831 11.0194 22.8994 10.8467ZM8.20313 20.3955V4.60449L21.1094 12.5L8.20313 20.3955Z" fill="#EEEBFA"/>
</svg>
