<svg width="25" height="25" viewBox="0 0 25 25" fill="none" xmlns="http://www.w3.org/2000/svg">
<path d="M12.4999 2.08333C6.77075 2.08333 2.08325 6.77083 2.08325 12.5C2.08325 18.2292 6.77075 22.9167 12.4999 22.9167C18.2291 22.9167 22.9166 18.2292 22.9166 12.5C22.9166 6.77083 18.2291 2.08333 12.4999 2.08333ZM12.4999 20.8333C7.927 20.8333 4.16659 17.0729 4.16659 12.5C4.16659 7.92708 7.927 4.16666 12.4999 4.16666C17.0728 4.16666 20.8333 7.92708 20.8333 12.5C20.8333 17.0729 17.0728 20.8333 12.4999 20.8333ZM13.5416 10.6979L16.4895 8.98958L17.5312 10.8021L14.5833 12.5L17.5312 14.1979L16.4895 16.0104L13.5416 14.3021V17.7083H11.4583V14.3021L8.51034 16.0104L7.46867 14.1979L10.4166 12.5L7.46867 10.8021L8.51034 8.98958L11.4583 10.6979V7.29166H13.5416V10.6979Z" fill="#FF9200"/>
</svg>
