<svg width="25" height="25" viewBox="0 0 25 25" fill="none" xmlns="http://www.w3.org/2000/svg">
<g clip-path="url(#clip0_183_1540)">
<path d="M23.9583 11.4583H22.8646C22.6211 9.06872 21.5606 6.83629 19.8622 5.13783C18.1637 3.43937 15.9313 2.3789 13.5417 2.13542V0H11.4583V2.13542C9.06872 2.3789 6.83629 3.43937 5.13783 5.13783C3.43937 6.83629 2.3789 9.06872 2.13542 11.4583H0V13.5417H2.13542C2.3789 15.9313 3.43937 18.1637 5.13783 19.8622C6.83629 21.5606 9.06872 22.6211 11.4583 22.8646V25H13.5417V22.8646C15.9313 22.6211 18.1637 21.5606 19.8622 19.8622C21.5606 18.1637 22.6211 15.9313 22.8646 13.5417H25V11.4583H23.9583ZM14.2948 11.4583C14.1134 11.1461 13.8539 10.8866 13.5417 10.7052V8.20937C14.3288 8.40158 15.048 8.8062 15.6209 9.37911C16.1938 9.95203 16.5984 10.6712 16.7906 11.4583H14.2948ZM16.7906 13.5417C16.5984 14.3288 16.1938 15.048 15.6209 15.6209C15.048 16.1938 14.3288 16.5984 13.5417 16.7906V14.2948C13.8539 14.1134 14.1134 13.8539 14.2948 13.5417H16.7906ZM11.4583 4.23958V6.60729C10.2506 6.82264 9.13805 7.40318 8.27061 8.27061C7.40318 9.13805 6.82264 10.2506 6.60729 11.4583H4.23854C4.47229 9.6253 5.30814 7.92178 6.61488 6.61523C7.92163 5.30867 9.62526 4.47306 11.4583 4.23958ZM10.7052 11.4583H8.20937C8.40169 10.6713 8.80634 9.95213 9.37924 9.37924C9.95213 8.80634 10.6713 8.40169 11.4583 8.20937V10.7052C11.1461 10.8866 10.8866 11.1461 10.7052 11.4583ZM11.4583 14.2948V16.7906C10.6712 16.5984 9.95203 16.1938 9.37911 15.6209C8.8062 15.048 8.40158 14.3288 8.20937 13.5417H10.7052C10.8866 13.8539 11.1461 14.1134 11.4583 14.2948ZM4.23958 13.5417H6.60729C6.82264 14.7494 7.40318 15.862 8.27061 16.7294C9.13805 17.5968 10.2506 18.1774 11.4583 18.3927V20.7615C9.6253 20.5277 7.92178 19.6919 6.61523 18.3851C5.30867 17.0784 4.47306 15.3747 4.23958 13.5417ZM13.5417 20.7604V18.3927C14.7494 18.1774 15.862 17.5968 16.7294 16.7294C17.5968 15.862 18.1774 14.7494 18.3927 13.5417H20.7615C20.5277 15.3747 19.6919 17.0782 18.3851 18.3848C17.0784 19.6913 15.3747 20.5269 13.5417 20.7604ZM18.3927 11.4583C18.1774 10.2506 17.5968 9.13805 16.7294 8.27061C15.862 7.40318 14.7494 6.82264 13.5417 6.60729V4.23854C15.3747 4.47229 17.0782 5.30814 18.3848 6.61488C19.6913 7.92163 20.5269 9.62526 20.7604 11.4583H18.3927Z" fill="#EEEBFA"/>
</g>
<defs>
<clipPath id="clip0_183_1540">
<rect width="25" height="25" fill="white"/>
</clipPath>
</defs>
</svg>
