<svg width="25" height="25" viewBox="0 0 25 25" fill="none" xmlns="http://www.w3.org/2000/svg">
<path d="M19.8438 5.11459C18.8888 4.14993 17.7513 3.38507 16.4976 2.86464C15.2439 2.34421 13.8992 2.07861 12.5417 2.08334C6.85425 2.08334 2.21883 6.71875 2.21883 12.4063C2.21883 14.2292 2.698 16 3.59383 17.5625L2.1355 22.9167L7.60425 21.4792C9.11466 22.3021 10.8126 22.7396 12.5417 22.7396C18.2292 22.7396 22.8647 18.1042 22.8647 12.4167C22.8647 9.65625 21.7917 7.0625 19.8438 5.11459ZM12.5417 20.9896C11.0001 20.9896 9.48966 20.5729 8.16675 19.7917L7.85425 19.6042L4.60425 20.4583L5.46883 17.2917L5.2605 16.9688C4.40398 15.601 3.94919 14.02 3.948 12.4063C3.948 7.67709 7.80216 3.82292 12.5313 3.82292C14.823 3.82292 16.9792 4.71875 18.5938 6.34375C19.3933 7.13955 20.0269 8.08611 20.4578 9.12857C20.8887 10.171 21.1084 11.2887 21.1042 12.4167C21.1251 17.1458 17.2709 20.9896 12.5417 20.9896ZM17.2501 14.5729C16.9897 14.4479 15.7188 13.8229 15.4897 13.7292C15.2501 13.6458 15.0834 13.6042 14.9063 13.8542C14.7292 14.1146 14.2397 14.6979 14.0938 14.8646C13.948 15.0417 13.7917 15.0625 13.5313 14.9271C13.2709 14.8021 12.4376 14.5208 11.4584 13.6458C10.6876 12.9583 10.1772 12.1146 10.0209 11.8542C9.87508 11.5938 10.0001 11.4583 10.1355 11.3229C10.2501 11.2083 10.3959 11.0208 10.5209 10.875C10.6459 10.7292 10.698 10.6146 10.7813 10.4479C10.8647 10.2708 10.823 10.125 10.7605 10C10.698 9.875 10.1772 8.60417 9.96883 8.08334C9.7605 7.58334 9.54175 7.64584 9.3855 7.63542H8.8855C8.70841 7.63542 8.43758 7.69792 8.198 7.95834C7.96883 8.21875 7.30216 8.84375 7.30216 10.1146C7.30216 11.3854 8.22925 12.6146 8.35425 12.7813C8.47925 12.9583 10.1772 15.5625 12.7605 16.6771C13.3751 16.9479 13.8542 17.1042 14.2292 17.2188C14.8438 17.4167 15.4063 17.3854 15.8542 17.3229C16.3542 17.25 17.3855 16.6979 17.5938 16.0938C17.8126 15.4896 17.8126 14.9792 17.7397 14.8646C17.6667 14.75 17.5105 14.6979 17.2501 14.5729Z" fill="#EEEBFA"/>
</svg>
