<?xml version="1.0" standalone="no"?>
<!DOCTYPE svg PUBLIC "-//W3C//DTD SVG 20010904//EN"
 "http://www.w3.org/TR/2001/REC-SVG-20010904/DTD/svg10.dtd">
<svg version="1.0" xmlns="http://www.w3.org/2000/svg"
 width="582.000000pt" height="428.000000pt" viewBox="0 0 582.000000 428.000000"
 preserveAspectRatio="xMidYMid meet">

<g transform="translate(0.000000,428.000000) scale(0.100000,-0.100000)"
fill="#000000" stroke="none">
<path d="M1705 3487 c-19 -172 43 -346 160 -455 68 -64 149 -116 169 -109 16
7 36 104 36 176 -1 123 -45 228 -134 316 -62 61 -149 119 -198 130 -26 7 -26
6 -33 -58z"/>
<path d="M1420 2941 c-316 -102 -490 -399 -490 -837 0 -316 113 -657 270 -815
89 -90 124 -99 306 -74 76 10 150 15 182 11 66 -8 150 -45 266 -119 102 -64
149 -76 235 -57 150 33 348 200 487 412 24 36 44 69 44 72 0 3 -18 6 -41 6
l-41 0 4 55 c1 30 1 55 0 55 -2 0 -41 -27 -87 -60 -46 -33 -88 -60 -93 -60 -6
0 -14 32 -18 72 l-7 71 -31 -34 c-17 -19 -48 -54 -68 -79 l-36 -44 -37 79 -37
80 -34 -72 c-44 -96 -61 -97 -101 -7 l-29 66 -19 -41 c-10 -23 -21 -41 -26
-41 -16 0 -59 63 -70 102 -13 50 -3 157 16 164 8 3 23 1 34 -6 26 -13 27 -3 5
44 -16 32 -14 65 4 94 7 9 21 8 67 -8 32 -11 62 -20 66 -20 4 0 -8 34 -27 76
-35 74 -38 104 -12 104 7 0 47 -11 88 -24 41 -13 77 -23 79 -21 2 2 -14 41
-35 85 -28 62 -35 86 -28 98 17 27 27 24 93 -29 l63 -52 -3 103 c-3 66 0 104
6 107 6 2 37 -28 69 -67 31 -39 61 -68 65 -66 4 3 13 50 20 106 17 126 29 129
79 19 l37 -81 39 92 39 92 64 -5 c57 -4 63 -3 63 14 0 51 -90 150 -190 209
-139 82 -275 104 -462 75 -64 -10 -129 -15 -149 -11 -20 3 -74 31 -122 61
-184 117 -352 153 -497 106z m589 -357 c42 -25 78 -48 80 -50 10 -9 -35 -45
-69 -55 -71 -21 -130 38 -116 116 4 19 12 35 18 35 6 0 45 -21 87 -46z"/>
</g>
</svg>
