<svg width="25" height="25" viewBox="0 0 25 25" fill="none" xmlns="http://www.w3.org/2000/svg">
<path d="M8.07282 2.60417C8.07282 2.39697 7.99051 2.19826 7.844 2.05174C7.69748 1.90523 7.49877 1.82292 7.29157 1.82292C7.08437 1.82292 6.88565 1.90523 6.73914 2.05174C6.59263 2.19826 6.51032 2.39697 6.51032 2.60417V4.25001C5.01032 4.3698 4.02699 4.66355 3.30407 5.38751C2.58011 6.11042 2.28636 7.0948 2.16553 8.59376H22.8343C22.7134 7.09376 22.4197 6.11042 21.6957 5.38751C20.9728 4.66355 19.9884 4.3698 18.4895 4.24896V2.60417C18.4895 2.39697 18.4072 2.19826 18.2607 2.05174C18.1141 1.90523 17.9154 1.82292 17.7082 1.82292C17.501 1.82292 17.3023 1.90523 17.1558 2.05174C17.0093 2.19826 16.927 2.39697 16.927 2.60417V4.18021C16.2343 4.16667 15.4572 4.16667 14.5832 4.16667H10.4166C9.54261 4.16667 8.76553 4.16667 8.07282 4.18021V2.60417Z" fill="#EEEBFA"/>
<path fill-rule="evenodd" clip-rule="evenodd" d="M2.08325 12.5C2.08325 11.626 2.08325 10.849 2.09679 10.1562H22.903C22.9166 10.849 22.9166 11.626 22.9166 12.5V14.5833C22.9166 18.5115 22.9166 20.476 21.6958 21.6958C20.476 22.9167 18.5114 22.9167 14.5833 22.9167H10.4166C6.48846 22.9167 4.52388 22.9167 3.30409 21.6958C2.08325 20.476 2.08325 18.5115 2.08325 14.5833V12.5ZM17.7083 14.5833C17.9845 14.5833 18.2495 14.4736 18.4448 14.2782C18.6402 14.0829 18.7499 13.8179 18.7499 13.5417C18.7499 13.2654 18.6402 13.0004 18.4448 12.8051C18.2495 12.6097 17.9845 12.5 17.7083 12.5C17.432 12.5 17.167 12.6097 16.9717 12.8051C16.7763 13.0004 16.6666 13.2654 16.6666 13.5417C16.6666 13.8179 16.7763 14.0829 16.9717 14.2782C17.167 14.4736 17.432 14.5833 17.7083 14.5833ZM17.7083 18.75C17.9845 18.75 18.2495 18.6403 18.4448 18.4449C18.6402 18.2496 18.7499 17.9846 18.7499 17.7083C18.7499 17.4321 18.6402 17.1671 18.4448 16.9718C18.2495 16.7764 17.9845 16.6667 17.7083 16.6667C17.432 16.6667 17.167 16.7764 16.9717 16.9718C16.7763 17.1671 16.6666 17.4321 16.6666 17.7083C16.6666 17.9846 16.7763 18.2496 16.9717 18.4449C17.167 18.6403 17.432 18.75 17.7083 18.75ZM13.5416 13.5417C13.5416 13.8179 13.4318 14.0829 13.2365 14.2782C13.0411 14.4736 12.7762 14.5833 12.4999 14.5833C12.2237 14.5833 11.9587 14.4736 11.7633 14.2782C11.568 14.0829 11.4583 13.8179 11.4583 13.5417C11.4583 13.2654 11.568 13.0004 11.7633 12.8051C11.9587 12.6097 12.2237 12.5 12.4999 12.5C12.7762 12.5 13.0411 12.6097 13.2365 12.8051C13.4318 13.0004 13.5416 13.2654 13.5416 13.5417ZM13.5416 17.7083C13.5416 17.9846 13.4318 18.2496 13.2365 18.4449C13.0411 18.6403 12.7762 18.75 12.4999 18.75C12.2237 18.75 11.9587 18.6403 11.7633 18.4449C11.568 18.2496 11.4583 17.9846 11.4583 17.7083C11.4583 17.4321 11.568 17.1671 11.7633 16.9718C11.9587 16.7764 12.2237 16.6667 12.4999 16.6667C12.7762 16.6667 13.0411 16.7764 13.2365 16.9718C13.4318 17.1671 13.5416 17.4321 13.5416 17.7083ZM7.29159 14.5833C7.56785 14.5833 7.8328 14.4736 8.02816 14.2782C8.22351 14.0829 8.33325 13.8179 8.33325 13.5417C8.33325 13.2654 8.22351 13.0004 8.02816 12.8051C7.8328 12.6097 7.56785 12.5 7.29159 12.5C7.01532 12.5 6.75037 12.6097 6.55502 12.8051C6.35967 13.0004 6.24992 13.2654 6.24992 13.5417C6.24992 13.8179 6.35967 14.0829 6.55502 14.2782C6.75037 14.4736 7.01532 14.5833 7.29159 14.5833ZM7.29159 18.75C7.56785 18.75 7.8328 18.6403 8.02816 18.4449C8.22351 18.2496 8.33325 17.9846 8.33325 17.7083C8.33325 17.4321 8.22351 17.1671 8.02816 16.9718C7.8328 16.7764 7.56785 16.6667 7.29159 16.6667C7.01532 16.6667 6.75037 16.7764 6.55502 16.9718C6.35967 17.1671 6.24992 17.4321 6.24992 17.7083C6.24992 17.9846 6.35967 18.2496 6.55502 18.4449C6.75037 18.6403 7.01532 18.75 7.29159 18.75Z" fill="#EEEBFA"/>
</svg>
