<svg width="25" height="25" viewBox="0 0 25 25" fill="none" xmlns="http://www.w3.org/2000/svg">
<path d="M6.69141 6.75002H8.75V10.5H4.34766L5.53516 7.53517C5.72266 7.06252 6.17969 6.75002 6.69141 6.75002ZM10.625 10.5V6.75002H13.7969C14.1758 6.75002 14.5352 6.92189 14.7734 7.21877L17.3984 10.5H10.625ZM20.6328 10.5391L16.7266 5.65627C16.0156 4.76564 14.9375 4.25002 13.7969 4.25002H6.69141C5.15625 4.25002 3.77734 5.18361 3.21094 6.60548L1.58594 10.6719C0.65625 11.0391 0 11.9414 0 13V17.375C0 18.0664 0.558594 18.625 1.25 18.625H2.55078C2.84766 20.3985 4.39062 21.75 6.25 21.75C8.10938 21.75 9.65234 20.3985 9.94922 18.625H15.0508C15.3477 20.3985 16.8906 21.75 18.75 21.75C20.6094 21.75 22.1523 20.3985 22.4492 18.625H23.75C24.4414 18.625 25 18.0664 25 17.375V15.5C25 12.9531 23.0938 10.8516 20.6328 10.5391ZM16.9805 17.375C17.06 17.1397 17.1856 16.9225 17.3498 16.7362C17.514 16.5498 17.7136 16.3979 17.937 16.2893C18.1604 16.1807 18.4032 16.1176 18.6512 16.1036C18.8992 16.0897 19.1475 16.1251 19.3817 16.2079C19.6159 16.2907 19.8313 16.4192 20.0154 16.586C20.1995 16.7528 20.3487 16.9544 20.4542 17.1793C20.5597 17.4042 20.6194 17.6478 20.63 17.896C20.6405 18.1442 20.6017 18.392 20.5156 18.625C20.4361 18.8603 20.3105 19.0775 20.1463 19.2639C19.9821 19.4503 19.7825 19.6022 19.5591 19.7107C19.3357 19.8193 19.0929 19.8824 18.8449 19.8964C18.5969 19.9104 18.3486 19.8749 18.1144 19.7921C17.8802 19.7093 17.6648 19.5808 17.4807 19.414C17.2966 19.2473 17.1474 19.0456 17.0419 18.8207C16.9364 18.5958 16.8767 18.3522 16.8661 18.104C16.8556 17.8558 16.8944 17.608 16.9805 17.375ZM6.25 16.125C6.74728 16.125 7.22419 16.3226 7.57583 16.6742C7.92746 17.0258 8.125 17.5027 8.125 18C8.125 18.4973 7.92746 18.9742 7.57583 19.3258C7.22419 19.6775 6.74728 19.875 6.25 19.875C5.75272 19.875 5.27581 19.6775 4.92417 19.3258C4.57254 18.9742 4.375 18.4973 4.375 18C4.375 17.5027 4.57254 17.0258 4.92417 16.6742C5.27581 16.3226 5.75272 16.125 6.25 16.125Z" fill="#EEEBFA"/>
</svg>
