<svg width="25" height="25" viewBox="0 0 25 25" fill="none" xmlns="http://www.w3.org/2000/svg">
<path d="M17.7084 18.75C18.261 18.75 18.7909 18.9695 19.1816 19.3602C19.5723 19.7509 19.7917 20.2808 19.7917 20.8333C19.7917 21.3859 19.5723 21.9158 19.1816 22.3065C18.7909 22.6972 18.261 22.9167 17.7084 22.9167C17.1559 22.9167 16.626 22.6972 16.2353 22.3065C15.8446 21.9158 15.6251 21.3859 15.6251 20.8333C15.6251 19.6771 16.5522 18.75 17.7084 18.75ZM1.04175 2.08333H4.448L5.42717 4.16666H20.8334C21.1097 4.16666 21.3746 4.27641 21.57 4.47176C21.7653 4.66711 21.8751 4.93206 21.8751 5.20833C21.8751 5.38541 21.823 5.5625 21.7501 5.72916L18.0209 12.4687C17.6667 13.1042 16.9792 13.5417 16.198 13.5417H8.43758L7.50008 15.2396L7.46883 15.3646C7.46883 15.4336 7.49627 15.4999 7.54511 15.5487C7.59394 15.5976 7.66018 15.625 7.72925 15.625H19.7917V17.7083H7.29175C6.73921 17.7083 6.20931 17.4888 5.81861 17.0981C5.42791 16.7074 5.20842 16.1775 5.20842 15.625C5.20842 15.2604 5.30217 14.9167 5.45842 14.625L6.87508 12.0729L3.12508 4.16666H1.04175V2.08333ZM7.29175 18.75C7.84428 18.75 8.37419 18.9695 8.76489 19.3602C9.15559 19.7509 9.37508 20.2808 9.37508 20.8333C9.37508 21.3859 9.15559 21.9158 8.76489 22.3065C8.37419 22.6972 7.84428 22.9167 7.29175 22.9167C6.73921 22.9167 6.20931 22.6972 5.81861 22.3065C5.42791 21.9158 5.20842 21.3859 5.20842 20.8333C5.20842 19.6771 6.1355 18.75 7.29175 18.75ZM16.6667 11.4583L19.5626 6.25H6.39592L8.85425 11.4583H16.6667Z" fill="#EEEBFA"/>
</svg>
