<svg width="25" height="25" viewBox="0 0 25 25" fill="none" xmlns="http://www.w3.org/2000/svg">
<path d="M9.37508 20.8333C9.37508 21.9792 8.43758 22.9167 7.29175 22.9167C6.14591 22.9167 5.20841 21.9792 5.20841 20.8333C5.20841 19.6875 6.14591 18.75 7.29175 18.75C8.43758 18.75 9.37508 19.6875 9.37508 20.8333ZM17.7084 18.75C16.5626 18.75 15.6251 19.6875 15.6251 20.8333C15.6251 21.9792 16.5626 22.9167 17.7084 22.9167C18.8542 22.9167 19.7917 21.9792 19.7917 20.8333C19.7917 19.6875 18.8542 18.75 17.7084 18.75ZM7.50008 15.4167V15.3125L8.43758 13.5417H16.1459C16.8751 13.5417 17.6042 13.125 17.9167 12.5L21.9792 5.20833L20.2084 4.16666L16.1459 11.4583H8.85425L4.47925 2.08333H1.04175V4.16666H3.12508L6.87508 12.0833L5.41675 14.5833C5.31258 14.8958 5.20841 15.2083 5.20841 15.625C5.20841 16.7708 6.14591 17.7083 7.29175 17.7083H19.7917V15.625H7.70841C7.60425 15.625 7.50008 15.5208 7.50008 15.4167ZM18.7501 2.91666L17.2917 1.45833L12.2917 6.45833L9.58341 3.74999L8.12508 5.20833L12.2917 9.37499L18.7501 2.91666Z" fill="#EEEBFA"/>
</svg>
