<svg width="25" height="25" viewBox="0 0 25 25" fill="none" xmlns="http://www.w3.org/2000/svg">
<g clip-path="url(#clip0_183_1548)">
<path fill-rule="evenodd" clip-rule="evenodd" d="M10.4167 2.08334C12.7313 2.08334 16.4136 3.23751 17.6552 6.96251C18.1094 8.32501 18.0511 9.53855 17.8896 10.7344L17.6177 12.5386C17.425 13.8979 17.2854 15.5073 17.5656 17.7083H18.75C19.0263 17.7083 19.2912 17.8181 19.4866 18.0134C19.6819 18.2088 19.7917 18.4737 19.7917 18.75V21.875C19.7917 22.1513 19.6819 22.4162 19.4866 22.6116C19.2912 22.8069 19.0263 22.9167 18.75 22.9167H6.25001C5.97375 22.9167 5.70879 22.8069 5.51344 22.6116C5.31809 22.4162 5.20835 22.1513 5.20835 21.875V18.75C5.20835 18.4737 5.31809 18.2088 5.51344 18.0134C5.70879 17.8181 5.97375 17.7083 6.25001 17.7083H7.4021C7.64376 16.5167 8.3396 14.8771 10.0729 13.1708C10.2625 12.9833 10.375 12.7677 10.4219 12.5542C10.0656 12.7802 9.71043 12.9896 9.3698 13.1802L8.86772 13.4531L8.39585 13.6979L7.96147 13.9136L7.4021 14.1761L7.10314 14.3104C7.06187 14.3286 7.02055 14.3467 6.97918 14.3646C6.69428 14.4875 6.37899 14.5219 6.07431 14.4632C5.76963 14.4044 5.48967 14.2554 5.27085 14.0354L3.7323 12.4969C3.47672 12.2415 3.31753 11.9055 3.28182 11.546C3.24612 11.1864 3.3361 10.8257 3.53647 10.525L7.13126 5.13334L6.36043 3.59168C6.28085 3.43287 6.2432 3.25634 6.25107 3.07888C6.25893 2.90142 6.31205 2.72893 6.40537 2.57778C6.49869 2.42663 6.62911 2.30186 6.78424 2.21532C6.93936 2.12878 7.11405 2.08335 7.29168 2.08334H10.4167ZM17.7083 19.7917H7.29168V20.8333H17.7083V19.7917ZM10.4167 4.16668H8.9771L9.2646 4.74272C9.33615 4.88589 9.37375 5.04363 9.37447 5.20369C9.37519 5.36375 9.33902 5.52182 9.26876 5.66564L9.20001 5.78647L5.5073 11.3261L6.48647 12.3052L6.87189 12.125L7.08855 12.0208L7.56355 11.7844C8.3948 11.3583 9.40314 10.7844 10.3011 10.1136C10.5014 9.95879 10.7513 9.88232 11.004 9.89842C11.2567 9.91453 11.4949 10.0221 11.674 10.2011C12.9292 11.4563 12.7083 13.3708 11.6583 14.5261L11.5333 14.6563C10.4042 15.7677 9.85626 16.7886 9.59689 17.5583L9.54897 17.7083H15.4677C15.2618 15.9877 15.2779 14.2478 15.5156 12.5313L15.5958 11.9625L15.7729 10.8C15.9583 9.55001 16.0271 8.66772 15.6792 7.62084C14.8354 5.09584 12.2677 4.16668 10.4167 4.16668ZM9.37501 7.29168C9.65128 7.29168 9.91623 7.40142 10.1116 7.59677C10.3069 7.79212 10.4167 8.05708 10.4167 8.33334C10.4167 8.60961 10.3069 8.87456 10.1116 9.06991C9.91623 9.26526 9.65128 9.37501 9.37501 9.37501C9.09875 9.37501 8.83379 9.26526 8.63844 9.06991C8.44309 8.87456 8.33335 8.60961 8.33335 8.33334C8.33335 8.05708 8.44309 7.79212 8.63844 7.59677C8.83379 7.40142 9.09875 7.29168 9.37501 7.29168Z" fill="#EEEBFA"/>
</g>
<defs>
<clipPath id="clip0_183_1548">
<rect width="25" height="25" fill="white"/>
</clipPath>
</defs>
</svg>
