<svg width="25" height="25" viewBox="0 0 25 25" fill="none" xmlns="http://www.w3.org/2000/svg">
<path d="M8.302 16.6667L5.20825 19.7917C4.8645 20.1042 4.40617 20.3125 3.90617 20.3125C3.4227 20.3125 2.95904 20.1204 2.61717 19.7786C2.27531 19.4367 2.08325 18.9731 2.08325 18.4896V18.2292L3.12492 10.5417C3.22993 9.37045 3.76903 8.28081 4.63634 7.48673C5.50365 6.69266 6.6365 6.25154 7.81242 6.25H17.1874C19.6458 6.25 21.6562 8.13542 21.8749 10.5417L22.9166 18.2292V18.4896C22.9166 18.9731 22.7245 19.4367 22.3827 19.7786C22.0408 20.1204 21.5771 20.3125 21.0937 20.3125C20.5937 20.3125 20.1353 20.1042 19.7916 19.7917L16.6978 16.6667H8.302ZM7.29159 8.33333V10.4167H5.20825V11.4583H7.29159V13.5417H8.33325V11.4583H10.4166V10.4167H8.33325V8.33333H7.29159ZM17.1874 8.33333C16.9802 8.33333 16.7815 8.41564 16.635 8.56216C16.4885 8.70867 16.4062 8.90738 16.4062 9.11458C16.4062 9.32178 16.4885 9.5205 16.635 9.66701C16.7815 9.81352 16.9802 9.89583 17.1874 9.89583C17.3946 9.89583 17.5933 9.81352 17.7398 9.66701C17.8864 9.5205 17.9687 9.32178 17.9687 9.11458C17.9687 8.90738 17.8864 8.70867 17.7398 8.56216C17.5933 8.41564 17.3946 8.33333 17.1874 8.33333ZM15.3645 10.1562C15.1573 10.1562 14.9586 10.2386 14.8121 10.3851C14.6656 10.5316 14.5833 10.7303 14.5833 10.9375C14.5833 11.1447 14.6656 11.3434 14.8121 11.4899C14.9586 11.6364 15.1573 11.7188 15.3645 11.7188C15.5717 11.7188 15.7704 11.6364 15.9169 11.4899C16.0634 11.3434 16.1458 11.1447 16.1458 10.9375C16.1458 10.7303 16.0634 10.5316 15.9169 10.3851C15.7704 10.2386 15.5717 10.1562 15.3645 10.1562ZM19.0103 10.1562C18.8031 10.1562 18.6044 10.2386 18.4579 10.3851C18.3114 10.5316 18.2291 10.7303 18.2291 10.9375C18.2291 11.1447 18.3114 11.3434 18.4579 11.4899C18.6044 11.6364 18.8031 11.7188 19.0103 11.7188C19.2175 11.7188 19.4163 11.6364 19.5628 11.4899C19.7093 11.3434 19.7916 11.1447 19.7916 10.9375C19.7916 10.7303 19.7093 10.5316 19.5628 10.3851C19.4163 10.2386 19.2175 10.1562 19.0103 10.1562ZM17.1874 11.9792C16.9802 11.9792 16.7815 12.0615 16.635 12.208C16.4885 12.3545 16.4062 12.5532 16.4062 12.7604C16.4062 12.9676 16.4885 13.1663 16.635 13.3128C16.7815 13.4594 16.9802 13.5417 17.1874 13.5417C17.3946 13.5417 17.5933 13.4594 17.7398 13.3128C17.8864 13.1663 17.9687 12.9676 17.9687 12.7604C17.9687 12.5532 17.8864 12.3545 17.7398 12.208C17.5933 12.0615 17.3946 11.9792 17.1874 11.9792Z" fill="#EEEBFA"/>
</svg>
