<svg width="77" height="50" viewBox="0 0 77 50" fill="none" xmlns="http://www.w3.org/2000/svg">
<path d="M74.06 4.94873C72.06 2.94873 4.45998 2.94873 2.45998 4.94873C0.460983 6.94873 0.459983 45.5347 2.45998 47.5367C4.45998 49.5367 72.06 49.5367 74.06 47.5367C76.058 45.5367 76.06 6.95273 74.06 4.94873Z" fill="#E3E3E3"/>
<path d="M74.06 2.46094C72.06 0.460938 4.45998 0.460938 2.45998 2.46094C0.460983 4.46094 0.459983 43.0489 2.45998 45.0509C4.45998 47.0509 72.06 47.0509 74.06 45.0509C76.058 43.0509 76.06 4.46094 74.06 2.46094Z" fill="white"/>
<path d="M9.24298 31.9859C9.24298 29.2499 10.861 27.3379 13.325 27.3379C15.136 27.3379 15.786 28.1129 15.786 28.1129L15.301 29.3999C15.301 29.3999 14.567 28.7669 13.43 28.7669C12.04 28.7669 10.968 29.9469 10.968 31.9859C10.968 34.0479 12.04 35.1639 13.43 35.1639C14.567 35.1639 15.301 34.5329 15.301 34.5329L15.764 35.7949C15.764 35.7949 15.112 36.5959 13.325 36.5959C10.861 36.5959 9.24298 34.7229 9.24298 31.9859Z" fill="#A0A0A0"/>
<path d="M18.959 27.547V24.855H20.688V27.547H22.94V28.918H20.688V33.797C20.688 34.66 21.002 35.125 21.737 35.125C22.288 35.125 22.833 34.744 22.833 34.744L23.38 35.967C23.276 36.047 22.519 36.596 21.485 36.596C19.719 36.596 18.96 35.502 18.96 33.821V28.919H17.487V27.548L18.959 27.547Z" fill="#A0A0A0"/>
<path d="M29.795 28.9379H29.352C28.303 28.9379 27.356 29.9049 27.315 31.2289V36.3829H25.61V27.5469H26.766L26.934 29.0429H27.041C27.479 28.0759 28.387 27.5249 29.332 27.5249H29.795V28.9379Z" fill="#A0A0A0"/>
<path d="M32.14 23.6558H33.834V36.3828H32.14V23.6558Z" fill="#A0A0A0"/>
<path d="M38.27 0.961C55.665 0.961 73.058 1.461 74.059 2.461C75.1 3.504 75.595 14.451 75.556 24.994C75.595 35.539 75.1 46.496 74.059 47.537C73.059 48.537 55.643 49.038 38.233 49.038C20.842 49.038 3.45798 48.537 2.45698 47.537C1.41698 46.496 0.918978 35.549 0.961978 25.006C0.917978 14.459 1.41598 3.504 2.45598 2.461C3.45598 1.461 20.865 0.961 38.27 0.961ZM38.27 0C29.18 0 20.623 0.133 14.18 0.375C2.75798 0.805 2.16998 1.393 1.78198 1.781C0.0539778 3.514 -0.0150221 19.998 0.00497785 25.011C-0.0160221 30.011 0.0539777 46.49 1.78098 48.221C2.16998 48.61 2.75798 49.2 14.167 49.627C20.607 49.87 29.154 50.004 38.237 50.004C47.327 50.004 55.89 49.87 62.337 49.627C73.762 49.197 74.347 48.609 74.741 48.221C76.418 46.544 76.543 31.42 76.519 24.991C76.542 18.579 76.417 3.461 74.742 1.781C74.351 1.392 73.763 0.804 62.35 0.375C55.908 0.133 47.357 0 38.27 0Z" fill="#D1D1D1"/>
</svg>
