<svg width="36" height="47" viewBox="0 0 36 47" fill="none" xmlns="http://www.w3.org/2000/svg">
<path d="M20.2824 46.0385C19.8543 46.0385 19.2023 46.0284 18.5363 45.9813C15.2343 45.7546 12.4472 44.6151 10.2542 42.5925C8.92815 41.3683 7.23413 39.2388 6.71412 36.0583C6.64712 35.6518 6.60211 35.2323 6.56811 34.7723C6.51811 34.0468 6.51611 28.6742 6.51611 28.5838C6.51611 28.2851 6.51811 20.0501 6.56811 19.3282C6.60111 18.8738 6.64612 18.4534 6.71212 18.0496C7.23113 14.8645 8.92615 12.7341 10.2542 11.5089C12.4472 9.48636 15.2343 8.346 18.5363 8.1183C19.2023 8.07129 19.8543 8.06299 20.2824 8.06299C20.7134 8.06299 21.3644 8.07129 22.0334 8.1183C25.3324 8.346 28.1175 9.48636 30.3125 11.5089C31.6425 12.7341 33.3326 14.8645 33.8526 18.0478C33.9186 18.4515 33.9666 18.8738 33.9986 19.3319C34.0486 20.0455 34.0506 28.2805 34.0506 28.5783C34.0506 28.6668 34.0506 34.0357 33.9986 34.7649C33.9666 35.2296 33.9196 35.6509 33.8526 36.0537C33.3356 39.2323 31.6425 41.3618 30.3125 42.5879C28.1175 44.6096 25.3324 45.7499 22.0334 45.9767C21.3644 46.0247 20.7134 46.0348 20.2824 46.0348" fill="#E3E3E3"/>
<path d="M20.2824 43.9657C19.8543 43.9657 19.2023 43.9556 18.5363 43.9086C15.2343 43.6818 12.4472 42.5415 10.2542 40.5189C8.92815 39.2946 7.23413 37.166 6.71412 33.9847C6.64712 33.5781 6.60211 33.1596 6.56811 32.6996C6.51811 31.9731 6.51611 26.6005 6.51611 26.512C6.51611 26.2142 6.51811 17.9782 6.56811 17.2564C6.60111 16.8019 6.64612 16.3806 6.71212 15.9768C7.23113 12.7936 8.92615 10.6632 10.2542 9.43711C12.4472 7.41545 15.2343 6.27325 18.5363 6.04647C19.2023 5.99945 19.8543 5.99023 20.2824 5.99023C20.7134 5.99023 21.3644 5.99945 22.0334 6.04647C25.3324 6.27325 28.1175 7.41452 30.3125 9.43711C31.6425 10.6632 33.3326 12.7936 33.8526 15.975C33.9186 16.3797 33.9666 16.8001 33.9986 17.2601C34.0486 17.9745 34.0506 26.2105 34.0506 26.5064C34.0506 26.5949 34.0506 31.9639 33.9986 32.694C33.9666 33.1596 33.9196 33.579 33.8526 33.9819C33.3356 37.1614 31.6425 39.2919 30.3125 40.5161C28.1175 42.5378 25.3324 43.679 22.0334 43.9058C21.3644 43.9547 20.7134 43.9639 20.2824 43.9639" fill="white"/>
<path d="M20.2823 5.99702C20.7133 5.99702 21.3644 6.00624 22.0334 6.05325C25.3324 6.28003 28.1175 7.42131 30.3125 9.44389C31.6425 10.67 33.3326 12.8004 33.8526 15.9818C33.9186 16.3865 33.9666 16.8069 33.9986 17.2669C34.0486 17.9813 34.0506 26.2173 34.0506 26.5132C34.0506 26.5335 34.0506 26.8589 34.0506 27.3429C34.0506 28.038 34.0506 28.5183 34.0506 28.5856C34.0506 28.6741 34.0506 34.0431 33.9986 34.7723C33.9666 35.2369 33.9196 35.6582 33.8526 36.061C33.3356 39.2396 31.6425 41.3692 30.3125 42.5952C28.1155 44.6169 25.3324 45.7573 22.0334 45.984C21.3644 46.0311 20.7133 46.0412 20.2843 46.0412C19.8553 46.0412 19.2023 46.0311 18.5363 45.984C15.2342 45.7573 12.4472 44.6178 10.2542 42.5952C8.92814 41.371 7.23411 39.2415 6.7141 36.061C6.6491 35.6545 6.6021 35.235 6.5681 34.775C6.5181 34.0495 6.5161 28.6769 6.5161 28.5865C6.5161 28.5201 6.5161 28.0297 6.5181 27.3263C6.5161 26.8525 6.5161 26.5372 6.5161 26.516C6.5161 26.2182 6.5181 17.9822 6.5681 17.2604C6.6011 16.8059 6.6461 16.3846 6.7121 15.9809C7.23111 12.7977 8.92614 10.6672 10.2542 9.44112C12.4472 7.41946 15.2342 6.27727 18.5343 6.05049C19.2023 6.00439 19.8543 5.99517 20.2823 5.99517M20.2823 5.09082C19.6253 5.09082 19.0113 5.11018 18.4593 5.1489C14.9192 5.39227 11.9242 6.62112 9.56115 8.80135C8.12712 10.1252 6.30109 12.4206 5.74408 15.8472C5.67708 16.263 5.62608 16.7064 5.59108 17.1996C5.53708 17.9684 5.53708 26.1629 5.53708 26.5105L5.53908 27.3245L5.53708 28.581C5.53708 28.6354 5.53708 34.0541 5.59108 34.8257C5.62608 35.318 5.67708 35.7633 5.74608 36.1883C6.30409 39.6112 8.12912 41.9048 9.56115 43.2277C11.9242 45.407 14.9192 46.6349 18.4633 46.8792C19.1573 46.928 19.8363 46.9382 20.2843 46.9382C20.7303 46.9382 21.4094 46.928 22.1074 46.8792C25.6444 46.6349 28.6375 45.4079 31.0055 43.2286C32.4395 41.9066 34.2656 39.6112 34.8216 36.1883C34.8896 35.767 34.9416 35.3217 34.9756 34.8248C35.0276 34.0892 35.0296 29.1406 35.0296 28.5801V27.3374V26.5077C35.0296 26.1602 35.0296 17.9675 34.9756 17.206C34.9436 16.7257 34.8916 16.2842 34.8216 15.8463C34.2646 12.4197 32.4385 10.1242 31.0055 8.80227C28.6395 6.62205 25.6464 5.39319 22.1054 5.14982C21.5564 5.1111 20.9413 5.09082 20.2823 5.09082Z" fill="#D1D1D1"/>
<path opacity="0.5" d="M21.0203 6.00211C20.7753 5.99843 20.5273 5.99658 20.2773 5.99658C20.0283 5.99658 19.7803 5.99843 19.5363 6.00211V19.8578H21.0203V6.00211Z" fill="#A0A0A0"/>
<path d="M20.2823 23.4797C20.0403 23.4797 19.8023 23.4723 19.6153 23.4613C19.3303 23.441 18.7993 23.4023 18.3713 23.0095C18.0023 22.6684 17.9363 22.2637 17.9163 22.1319C17.9003 22.0397 17.8873 21.9328 17.8793 21.8047C17.8653 21.6129 17.8583 20.4993 17.8583 20.2458C17.8583 19.9913 17.8663 15.9757 17.8793 15.7848C17.8873 15.6558 17.9003 15.5479 17.9163 15.4576C17.9373 15.3239 18.0023 14.9192 18.3713 14.58C18.7993 14.1845 19.3303 14.1467 19.6153 14.1292C19.8023 14.1144 20.0383 14.1089 20.2823 14.1089C20.5264 14.1089 20.7634 14.1153 20.9514 14.1292C21.2364 14.1476 21.7674 14.1854 22.1954 14.58C22.5644 14.9192 22.6314 15.3248 22.6504 15.4576C22.6684 15.5488 22.6784 15.6567 22.6874 15.7848C22.7014 15.9757 22.7084 19.9904 22.7084 20.2458C22.7084 20.4993 22.7004 21.6129 22.6874 21.8047C22.6784 21.9337 22.6674 22.0407 22.6504 22.1319C22.6304 22.2647 22.5644 22.6684 22.1954 23.0095C21.7674 23.4023 21.2364 23.441 20.9514 23.4613C20.7644 23.4723 20.5274 23.4797 20.2823 23.4797Z" fill="#A0A0A0"/>
<path d="M13.1002 16.0347C11.2422 16.0347 9.73016 14.6427 9.73016 12.9289C9.73016 11.217 11.2422 9.82129 13.1002 9.82129C14.9593 9.82129 16.4703 11.217 16.4703 12.9289C16.4703 14.6427 14.9593 16.0347 13.1002 16.0347ZM13.1002 11.2023C12.0692 11.2023 11.2292 11.9757 11.2292 12.928C11.2292 13.8803 12.0692 14.6528 13.1002 14.6528C14.1322 14.6528 14.9723 13.8803 14.9723 12.928C14.9723 11.9757 14.1322 11.2023 13.1002 11.2023Z" fill="#71C3EA"/>
<path opacity="0.5" d="M13.1002 19.1426C9.38517 19.1426 6.36111 16.3586 6.36111 12.9292C6.36111 9.50263 9.38117 6.71582 13.1002 6.71582C16.8173 6.71582 19.8403 9.49987 19.8403 12.9292C19.8403 16.3558 16.8203 19.1426 13.1002 19.1426ZM13.1002 8.09678C10.2112 8.09678 7.86014 10.2641 7.86014 12.9283C7.86014 15.5925 10.2122 17.7607 13.1002 17.7607C15.9923 17.7607 18.3423 15.5925 18.3423 12.9283C18.3423 10.2641 15.9913 8.09678 13.1002 8.09678Z" fill="#71C3EA"/>
<path opacity="0.3" d="M13.1002 22.0787C7.62913 22.0787 3.18005 17.9764 3.18005 12.931C3.18005 7.88742 7.62913 3.78418 13.1002 3.78418C18.5733 3.78418 23.0234 7.88742 23.0234 12.931C23.0224 17.9764 18.5723 22.0787 13.1002 22.0787ZM13.1002 5.16422C8.45514 5.16422 4.67408 8.64797 4.67408 12.9319C4.67408 17.2158 8.45514 20.6986 13.1002 20.6986C17.7463 20.6986 21.5264 17.2158 21.5264 12.9319C21.5264 8.64797 17.7453 5.16422 13.1002 5.16422Z" fill="#71C3EA"/>
<path opacity="0.1" d="M13.1002 25.0104C5.8741 25.0104 0 19.5916 0 12.9246C0 6.26229 5.8781 0.848145 13.1002 0.848145C20.3264 0.848145 26.2105 6.2669 26.2105 12.9246C26.2105 19.5861 20.3304 25.0104 13.1002 25.0104ZM13.1002 2.23003C6.70112 2.23003 1.49503 7.02928 1.49503 12.9292C1.49503 18.8292 6.70112 23.6294 13.1002 23.6294C19.5013 23.6294 24.7074 18.8292 24.7074 12.9292C24.7074 7.02928 19.5013 2.23003 13.1002 2.23003Z" fill="#71C3EA"/>
</svg>
