<svg width="36" height="50" viewBox="0 0 36 50" fill="none" xmlns="http://www.w3.org/2000/svg">
<path d="M14.746 49.0202C15.176 49.0202 15.828 49.0092 16.494 48.9582C19.794 48.7122 22.581 47.4762 24.774 45.2822C26.103 43.9542 27.794 41.6442 28.316 38.1942C28.382 37.7532 28.429 37.2982 28.462 36.7992C28.511 36.0122 28.513 30.1842 28.513 30.0862C28.513 29.7622 28.511 20.8292 28.462 20.0462C28.429 19.5532 28.382 19.0972 28.317 18.6592C27.799 15.2042 26.104 12.8932 24.773 11.5642C22.58 9.37017 19.793 8.13317 16.493 7.88617C15.827 7.83517 15.175 7.82617 14.747 7.82617C14.317 7.82617 13.665 7.83517 12.997 7.88617C9.69701 8.13317 6.91201 9.37017 4.71801 11.5642C3.38801 12.8932 1.69801 15.2042 1.17501 18.6572C1.11101 19.0952 1.06201 19.5532 1.03001 20.0502C0.982011 20.8252 0.980011 29.7582 0.980011 30.0802C0.980011 30.1762 0.980011 36.0002 1.03101 36.7912C1.06201 37.2952 1.11101 37.7522 1.17701 38.1892C1.69501 41.6372 3.38801 43.9472 4.71801 45.2772C6.91201 47.4702 9.69701 48.7072 12.997 48.9532C13.666 49.0042 14.318 49.0152 14.746 49.0152" fill="#E3E3E3"/>
<path d="M14.746 46.7721C15.176 46.7721 15.828 46.7611 16.494 46.7101C19.794 46.4641 22.581 45.2271 24.774 43.0331C26.103 41.7051 27.794 39.3961 28.316 35.9451C28.382 35.5041 28.429 35.0501 28.462 34.5511C28.511 33.7631 28.513 27.9351 28.513 27.8391C28.513 27.5161 28.511 18.5821 28.462 17.7991C28.429 17.3061 28.382 16.8491 28.317 16.4111C27.799 12.9581 26.104 10.6471 24.773 9.31713C22.58 7.12413 19.793 5.88512 16.493 5.63912C15.827 5.58812 15.175 5.57812 14.747 5.57812C14.317 5.57812 13.665 5.58812 12.997 5.63912C9.69701 5.88512 6.91201 7.12313 4.71801 9.31713C3.38801 10.6471 1.69801 12.9581 1.17501 16.4091C1.11101 16.8481 1.06201 17.3041 1.03001 17.8031C0.982011 18.5801 0.980011 27.5141 0.980011 27.8331C0.980011 27.9291 0.980011 33.7531 1.03101 34.5451C1.06201 35.0501 1.11101 35.5051 1.17701 35.9421C1.69501 39.3911 3.38801 41.7021 4.71801 43.0301C6.91201 45.2231 9.69701 46.4611 12.997 46.7071C13.666 46.7581 14.318 46.7681 14.746 46.7681" fill="white"/>
<path d="M14.748 5.58498C15.176 5.58498 15.828 5.59498 16.494 5.64598C19.794 5.89198 22.581 7.12998 24.774 9.32398C26.105 10.654 27.794 12.965 28.316 16.418C28.382 16.856 28.429 17.313 28.462 17.806C28.511 18.585 28.511 27.519 28.511 27.846C28.511 27.868 28.511 28.211 28.511 28.725C28.511 29.489 28.511 30.02 28.511 30.092C28.511 30.19 28.511 36.018 28.462 36.805C28.429 37.303 28.382 37.758 28.316 38.2C27.796 41.65 26.103 43.96 24.774 45.288C22.581 47.481 19.794 48.718 16.494 48.964C15.828 49.015 15.176 49.026 14.746 49.026C14.318 49.026 13.666 49.015 12.998 48.964C9.698 48.718 6.913 47.482 4.719 45.288C3.389 43.958 1.699 41.648 1.178 38.2C1.112 37.762 1.063 37.305 1.032 36.802C0.98 36.009 0.98 30.185 0.98 30.089C0.98 30.015 0.98 29.485 0.98 28.72C0.98 28.206 0.98 27.864 0.98 27.841C0.98 27.522 0.982 18.588 1.031 17.811C1.062 17.312 1.111 16.857 1.176 16.417C1.694 12.966 3.389 10.655 4.719 9.32498C6.913 7.13198 9.698 5.89298 12.998 5.64698C13.666 5.59698 14.318 5.58698 14.748 5.58698M14.748 4.60598C14.09 4.60598 13.475 4.62698 12.924 4.66898C9.387 4.93398 6.393 6.26698 4.025 8.63198C2.589 10.068 0.762 12.558 0.207 16.273C0.137 16.746 0.086 17.227 0.053 17.748C0 18.577 0 27.747 0 27.838V28.717V30.086C0 30.694 0.002 36.061 0.053 36.858C0.086 37.391 0.137 37.876 0.207 38.341C0.766 42.052 2.592 44.542 4.025 45.975C6.39 48.339 9.384 49.671 12.925 49.936C13.621 49.99 14.301 50.001 14.746 50.001C15.193 50.001 15.873 49.99 16.569 49.937C20.109 49.672 23.103 48.34 25.467 45.976C26.9 44.545 28.726 42.057 29.284 38.34C29.354 37.879 29.405 37.397 29.44 36.865C29.489 36.067 29.491 30.697 29.491 30.088V28.721V27.842C29.491 26.291 29.489 18.514 29.44 17.742C29.405 17.209 29.354 16.727 29.284 16.271C28.727 12.552 26.901 10.064 25.467 8.62898C23.103 6.26498 20.107 4.93198 16.567 4.66798C16.018 4.62698 15.405 4.60598 14.748 4.60598Z" fill="#D1D1D1"/>
<path opacity="0.5" d="M14.01 5.59096C14.254 5.58696 14.502 5.58496 14.752 5.58496C15 5.58496 15.248 5.58696 15.492 5.59096V20.621H14.01V5.59096Z" fill="#A0A0A0"/>
<path d="M14.746 24.5498C14.99 24.5498 15.228 24.5418 15.415 24.5298C15.7 24.5078 16.23 24.4658 16.66 24.0398C17.029 23.6698 17.094 23.2308 17.117 23.0878C17.131 22.9878 17.142 22.8718 17.151 22.7328C17.165 22.5248 17.172 21.3168 17.172 21.0418C17.172 20.7658 17.165 16.4098 17.151 16.2028C17.142 16.0628 17.13 15.9458 17.117 15.8478C17.094 15.7028 17.029 15.2638 16.66 14.8958C16.23 14.4668 15.7 14.4258 15.415 14.4068C15.228 14.3908 14.99 14.3848 14.748 14.3848C14.504 14.3848 14.266 14.3918 14.08 14.4068C13.793 14.4268 13.263 14.4678 12.834 14.8958C12.466 15.2638 12.4 15.7038 12.378 15.8478C12.363 15.9468 12.352 16.0638 12.344 16.2028C12.328 16.4098 12.323 20.7648 12.323 21.0418C12.323 21.3168 12.329 22.5248 12.344 22.7328C12.352 22.8728 12.364 22.9888 12.378 23.0878C12.4 23.2318 12.466 23.6698 12.834 24.0398C13.263 24.4658 13.793 24.5078 14.08 24.5298C14.266 24.5418 14.502 24.5498 14.746 24.5498Z" fill="#A0A0A0"/>
<path d="M18.557 13.1C18.557 11.243 20.069 9.729 21.926 9.729C23.783 9.729 25.297 11.243 25.297 13.1C25.297 14.959 23.783 16.469 21.926 16.469C20.069 16.469 18.557 14.96 18.557 13.1ZM20.054 13.1C20.054 14.133 20.895 14.971 21.926 14.971C22.957 14.971 23.798 14.133 23.798 13.1C23.798 12.067 22.957 11.228 21.926 11.228C20.895 11.228 20.054 12.067 20.054 13.1Z" fill="#71C3EA"/>
<path opacity="0.5" d="M15.186 13.0999C15.186 9.38286 18.206 6.35986 21.926 6.35986C25.643 6.35986 28.666 9.37986 28.666 13.0999C28.666 16.8169 25.646 19.8399 21.926 19.8399C18.211 19.8409 15.186 16.8199 15.186 13.0999ZM16.685 13.0999C16.685 15.9909 19.036 18.3419 21.926 18.3419C24.816 18.3419 27.168 15.9899 27.168 13.0999C27.168 10.2099 24.816 7.85886 21.926 7.85886C19.036 7.85886 16.685 10.2099 16.685 13.0999Z" fill="#71C3EA"/>
<path opacity="0.3" d="M12 13.1002C12 7.62922 16.451 3.17822 21.922 3.17822C27.393 3.17822 31.844 7.62922 31.844 13.1002C31.844 18.5732 27.393 23.0232 21.922 23.0232C16.451 23.0232 12 18.5732 12 13.1002ZM13.498 13.1002C13.498 17.7462 17.277 21.5252 21.922 21.5252C26.567 21.5252 30.347 17.7472 30.347 13.1002C30.347 8.45322 26.567 4.67422 21.922 4.67422C17.277 4.67422 13.498 8.45422 13.498 13.1002Z" fill="#71C3EA"/>
<path opacity="0.1" d="M8.82199 13.1C8.82199 5.874 14.701 0 21.922 0C29.149 0 35.032 5.878 35.032 13.1C35.032 20.326 29.152 26.2 21.922 26.2C14.697 26.201 8.82199 20.323 8.82199 13.1ZM10.317 13.1C10.317 19.5 15.525 24.707 21.925 24.707C28.325 24.707 33.534 19.5 33.534 13.1C33.534 6.7 28.326 1.494 21.926 1.494C15.526 1.494 10.317 6.7 10.317 13.1Z" fill="#71C3EA"/>
</svg>
