<svg width="77" height="50" viewBox="0 0 77 50" fill="none" xmlns="http://www.w3.org/2000/svg">
<path d="M74.06 4.94678C72.05 2.94678 4.46 2.94678 2.46 4.94678C0.462004 6.94678 0.460004 45.5348 2.46 47.5348C4.47 49.5348 72.06 49.5348 74.06 47.5348C76.06 45.5368 76.06 6.95078 74.06 4.94678Z" fill="#E3E3E3"/>
<path d="M74.06 2.46289C72.05 0.462891 4.46 0.462891 2.46 2.46289C0.462004 4.45889 0.460004 43.0469 2.46 45.0469C4.47 47.0569 72.06 47.0469 74.06 45.0469C76.06 43.0489 76.06 4.46289 74.06 2.46289Z" fill="white"/>
<path d="M17.343 36.381H16.165L15.955 35.182H15.913C15.429 36.021 14.524 36.59 13.221 36.59C11.262 36.59 10.148 35.348 10.148 33.77C10.148 32.067 11.431 30.89 13.851 30.89C14.63 30.89 15.24 31.034 15.703 31.183V30.909C15.703 29.436 14.924 28.806 13.599 28.806C12.358 28.806 11.411 29.5 11.411 29.5L10.781 28.131C10.781 28.131 11.937 27.332 13.811 27.332C16.294 27.332 17.345 28.762 17.345 30.928V36.381M15.703 32.424C15.389 32.255 14.863 32.045 14.021 32.045C12.526 32.045 11.83 32.676 11.83 33.709C11.83 34.592 12.442 35.286 13.537 35.286C14.778 35.286 15.703 34.276 15.703 33.074V32.424Z" fill="#A0A0A0"/>
<path d="M20.541 23.6499H22.243V36.3799H20.541V23.6499Z" fill="#A0A0A0"/>
<path d="M26.07 27.5431V24.8481H27.797V27.5431H30.049V28.9101H27.797V33.7911C27.797 34.6541 28.113 35.1171 28.852 35.1171C29.397 35.1171 29.944 34.7381 29.944 34.7381L30.49 35.9611C30.386 36.0451 29.628 36.5901 28.596 36.5901C26.83 36.5901 26.071 35.4981 26.071 33.8151V28.9101H24.599V27.5431H26.07Z" fill="#A0A0A0"/>
<path d="M38.27 0.961C55.666 0.961 73.058 1.461 74.06 2.463C75.101 3.503 75.599 14.449 75.554 24.992C75.599 35.539 75.101 46.496 74.06 47.535C73.06 48.535 55.646 49.039 38.24 49.039C20.847 49.039 3.46001 48.537 2.45701 47.535C1.41601 46.496 0.919013 35.547 0.963013 25.006C0.919013 14.457 1.41601 3.503 2.45701 2.463C3.45701 1.463 20.865 0.961 38.27 0.961ZM38.27 0C29.18 0 20.624 0.134 14.18 0.376C2.75801 0.805 2.17001 1.393 1.78001 1.783C0.0480126 3.516 -0.0169874 19.998 0.00501259 25.013C-0.0159874 30.012 0.0480126 46.486 1.78001 48.223C2.16901 48.614 2.75801 49.202 14.169 49.631C20.608 49.873 29.157 50.008 38.239 50.008C47.329 50.008 55.888 49.873 62.339 49.631C73.761 49.201 74.349 48.613 74.739 48.223C76.472 46.493 76.537 30.008 76.515 24.993C76.536 19.993 76.472 3.518 74.74 1.793C74.35 1.402 73.761 0.814 62.348 0.386C55.906 0.143 47.357 0.01 38.268 0.01" fill="#D1D1D1"/>
</svg>
