<svg width="97" height="50" viewBox="0 0 97 50" fill="none" xmlns="http://www.w3.org/2000/svg">
<path d="M61.533 4.15281C60.609 3.22981 35.198 3.23081 34.273 4.15281C33.351 5.07281 33.351 22.8478 34.273 23.7718C35.193 24.6958 60.604 24.6938 61.533 23.7718C62.455 22.8498 62.455 5.07381 61.533 4.15281Z" fill="#E3E3E3"/>
<path d="M28.911 28.7296C27.989 27.8056 2.57697 27.8056 1.65097 28.7296C0.729973 29.6476 0.727973 47.4246 1.65097 48.3446C2.57297 49.2686 27.987 49.2666 28.911 48.3446C29.833 47.4256 29.833 29.6476 28.911 28.7296Z" fill="#E3E3E3"/>
<path d="M61.533 28.7296C60.609 27.8056 35.198 27.8056 34.273 28.7296C33.351 29.6476 33.351 47.4246 34.273 48.3446C35.193 49.2686 60.604 49.2666 61.533 48.3446C62.455 47.4256 62.455 29.6476 61.533 28.7296Z" fill="#E3E3E3"/>
<path d="M94.556 28.7296C93.633 27.8056 68.223 27.8056 67.296 28.7296C66.376 29.6476 66.374 47.4246 67.296 48.3446C68.22 49.2686 93.632 49.2666 94.556 48.3446C95.478 47.4256 95.479 29.6476 94.556 28.7296Z" fill="#E3E3E3"/>
<path d="M61.533 1.65191C60.609 0.730914 35.198 0.732914 34.273 1.65191C33.351 2.57491 33.351 20.3489 34.273 21.2709C35.193 22.1929 60.604 22.1929 61.533 21.2709C62.455 20.3489 62.455 2.57491 61.533 1.65191Z" fill="white"/>
<path d="M28.911 26.2271C27.989 25.3041 2.57697 25.3061 1.65097 26.2271C0.729973 27.1491 0.727973 44.9241 1.65097 45.8461C2.57297 46.7701 27.987 46.7701 28.911 45.8461C29.833 44.9241 29.833 27.1501 28.911 26.2271Z" fill="white"/>
<path d="M61.533 26.2271C60.609 25.3041 35.198 25.3061 34.273 26.2271C33.351 27.1491 33.351 44.9241 34.273 45.8461C35.193 46.7701 60.604 46.7701 61.533 45.8461C62.455 44.9241 62.455 27.1501 61.533 26.2271Z" fill="white"/>
<path d="M94.556 26.2271C93.633 25.3041 68.223 25.3061 67.296 26.2271C66.376 27.1491 66.374 44.9241 67.296 45.8461C68.22 46.7701 93.632 46.7701 94.556 45.8461C95.478 44.9241 95.479 27.1501 94.556 26.2271Z" fill="white"/>
<path opacity="0.5" d="M52.39 15.2849C51.036 12.2649 49.47 9.63886 47.903 7.40186C46.333 9.63986 44.765 12.2689 43.41 15.2849C46.392 15.6029 49.408 15.6029 52.39 15.2849Z" fill="#A0A0A0"/>
<path opacity="0.5" d="M43.41 32.2197C44.765 35.2397 46.333 37.8647 47.903 40.1047C49.47 37.8647 51.036 35.2357 52.39 32.2197C49.409 31.9007 46.393 31.9007 43.41 32.2197Z" fill="#A0A0A0"/>
<path opacity="0.5" d="M17.857 31.5488C14.837 32.9008 12.21 34.4688 9.97098 36.0348C12.21 37.6028 14.839 39.1718 17.857 40.5268C18.173 37.5468 18.173 34.5288 17.857 31.5488Z" fill="#A0A0A0"/>
<path opacity="0.5" d="M78.35 40.5268C81.37 39.1718 83.995 37.6028 86.234 36.0348C83.995 34.4688 81.367 32.8998 78.35 31.5488C78.032 34.5288 78.032 37.5468 78.35 40.5268Z" fill="#A0A0A0"/>
<path d="M47.914 0.961977C54.493 0.961977 61.07 1.19198 61.533 1.65198C62.034 2.15498 62.262 7.65198 62.217 12.712C62.262 17.768 62.034 23.273 61.533 23.772C61.07 24.233 54.473 24.464 47.889 24.464C41.31 24.464 34.738 24.234 34.278 23.772C33.775 23.27 33.548 17.772 33.592 12.712C33.547 7.65598 33.776 2.15398 34.278 1.65198C34.738 1.19298 41.328 0.961977 47.914 0.961977ZM47.914 0.000976562C34.571 0.000976562 33.894 0.681977 33.598 0.972977C32.719 1.85398 32.588 7.84798 32.631 12.722C32.568 19.792 32.894 23.752 33.598 24.453C33.888 24.744 34.567 25.427 47.89 25.427C61.237 25.427 61.92 24.745 62.212 24.453C62.916 23.747 63.242 19.793 63.178 12.701C63.242 5.63098 62.916 1.68098 62.215 0.973977C61.92 0.681977 61.238 0.000976562 47.914 0.000976562Z" fill="#D1D1D1"/>
<path d="M15.292 25.5342C21.873 25.5342 28.451 25.7652 28.911 26.2272C29.412 26.7292 29.64 32.2272 29.596 37.2872C29.639 42.3462 29.412 47.8482 28.911 48.3472C28.451 48.8082 21.861 49.0382 15.273 49.0382C8.69298 49.0382 2.11498 48.8082 1.65398 48.3472C1.15298 47.8452 0.922983 42.3472 0.968983 37.2872C0.922983 32.2372 1.15298 26.7282 1.65398 26.2272C2.11698 25.7662 8.70398 25.5342 15.292 25.5342ZM15.292 24.5742C1.94798 24.5742 1.26198 25.2572 0.973983 25.5482C0.0939828 26.4262 -0.0360171 32.4232 0.00698286 37.2982C-0.0370171 42.1532 0.0939828 48.1462 0.973983 49.0272C1.26498 49.3172 1.94698 50.0012 15.273 50.0012C28.618 50.0012 29.303 49.3172 29.591 49.0262C30.293 48.3232 30.618 44.3702 30.558 37.2762C30.619 30.1962 30.293 26.2462 29.591 25.5482C29.301 25.2572 28.619 24.5742 15.292 24.5742Z" fill="#D1D1D1"/>
<path d="M47.914 25.5342C54.493 25.5342 61.07 25.7652 61.533 26.2272C62.034 26.7292 62.262 32.2272 62.217 37.2872C62.262 42.3462 62.034 47.8482 61.533 48.3472C61.07 48.8082 54.483 49.0382 47.894 49.0382C41.314 49.0382 34.738 48.8082 34.278 48.3472C33.775 47.8452 33.548 42.3472 33.592 37.2872C33.547 32.2372 33.776 26.7282 34.278 26.2272C34.738 25.7662 41.328 25.5342 47.914 25.5342ZM47.914 24.5742C34.57 24.5742 33.894 25.2572 33.598 25.5482C32.721 26.4262 32.588 32.4232 32.631 37.2982C32.568 44.3682 32.894 48.3282 33.598 49.0282C33.888 49.3172 34.568 50.0012 47.895 50.0012C61.237 50.0012 61.915 49.3192 62.212 49.0282C62.916 48.3212 63.242 44.3682 63.178 37.2762C63.242 30.2062 62.916 26.2562 62.213 25.5482C61.922 25.2572 61.239 24.5742 47.914 24.5742Z" fill="#D1D1D1"/>
<path d="M80.938 25.5338C87.516 25.5338 94.095 25.7648 94.556 26.2268C95.056 26.7288 95.286 32.2268 95.241 37.2868C95.287 42.3458 95.056 47.8478 94.556 48.3468C94.095 48.8078 87.506 49.0378 80.918 49.0378C74.338 49.0378 67.76 48.8078 67.299 48.3468C66.797 47.8448 66.569 42.3468 66.615 37.2868C66.568 32.2298 66.797 26.7258 67.299 26.2268C67.76 25.7648 74.349 25.5338 80.938 25.5338ZM80.938 24.5728C67.594 24.5728 66.908 25.2548 66.619 25.5458C65.741 26.4248 65.609 32.4208 65.653 37.2978C65.609 42.1528 65.74 48.1458 66.619 49.0248C66.909 49.3178 67.593 49.9998 80.918 49.9998C94.262 49.9998 94.948 49.3158 95.235 49.0248C96.115 48.1438 96.245 42.1478 96.201 37.2748C96.246 32.4198 96.114 26.4268 95.236 25.5468C94.945 25.2558 94.263 24.5728 80.938 24.5728Z" fill="#D1D1D1"/>
</svg>
