<svg width="119" height="50" viewBox="0 0 119 50" fill="none" xmlns="http://www.w3.org/2000/svg">
<path d="M115.93 4.94922C113.93 2.94922 4.45998 2.94922 2.45998 4.94922C0.460983 6.94922 0.459983 45.5372 2.45998 47.5352C4.45998 49.5452 113.93 49.5352 115.93 47.5352C117.928 45.5392 117.93 6.95122 115.93 4.94922Z" fill="#E3E3E3"/>
<path d="M115.93 2.46338C113.93 0.463379 4.45998 0.463379 2.45998 2.46338C0.460983 4.46138 0.459983 43.0494 2.45998 45.0514C4.45998 47.0514 113.93 47.0494 115.93 45.0514C117.928 43.0514 117.93 4.46338 115.93 2.46338Z" fill="white"/>
<g opacity="0.5">
<path d="M59.18 42.2005H59.172C29.779 42.2005 12.414 41.6985 6.47297 41.2665C6.17597 41.2465 5.93297 41.0125 5.90097 40.7135C5.10597 33.4245 5.10597 14.0925 5.90097 6.79848C5.93297 6.50148 6.17597 6.26948 6.47497 6.24648C12.418 5.81748 29.8 5.31348 59.215 5.31348C88.604 5.31348 105.97 5.81748 111.915 6.24648C112.212 6.26848 112.456 6.50148 112.486 6.79948C113.282 14.0935 113.282 33.4275 112.486 40.7145C112.456 41.0135 112.212 41.2455 111.913 41.2675C105.971 41.6985 88.593 42.2005 59.18 42.2005ZM59.172 40.9565H59.18C87.745 40.9565 104.929 40.4855 111.3 40.0635C112.018 32.6515 112.018 14.8635 111.3 7.45248C104.928 7.03148 87.754 6.55748 59.21 6.55748C30.643 6.55748 13.453 7.03148 7.07997 7.45248C6.36297 14.8625 6.36297 32.6525 7.07797 40.0635C13.45 40.4855 30.622 40.9565 59.168 40.9565" fill="#A0A0A0"/>
<path d="M5.84097 33.2275H112.171V34.4715H5.84097V33.2275Z" fill="#A0A0A0"/>
<path d="M5.84097 26.5005H112.551V27.7405H5.84097V26.5005Z" fill="#A0A0A0"/>
<path d="M106.57 27.1205H105.33V21.0105H5.83997V19.7705H106.57V27.1205Z" fill="#A0A0A0"/>
<path d="M5.84097 13.0425H112.171V14.2875H5.84097V13.0425Z" fill="#A0A0A0"/>
<path d="M12.151 33.8486H13.394V41.2546H12.151V33.8486Z" fill="#A0A0A0"/>
<path d="M12.151 6.82861H13.394V13.6646H12.151V6.82861Z" fill="#A0A0A0"/>
<path d="M19.292 33.8486H20.538V41.2546H19.292V33.8486Z" fill="#A0A0A0"/>
<path d="M19.292 6.82861H20.538V13.9416H19.292V6.82861Z" fill="#A0A0A0"/>
<path d="M26.433 33.8486H27.678V41.2546H26.433V33.8486Z" fill="#A0A0A0"/>
<path d="M26.433 6.48145H27.678V13.9414H26.433V6.48145Z" fill="#A0A0A0"/>
<path d="M33.576 33.8486H34.819V41.2546H33.576V33.8486Z" fill="#A0A0A0"/>
<path d="M33.576 6.07861H34.819V13.9416H33.576V6.07861Z" fill="#A0A0A0"/>
<path d="M40.715 6.07861H41.96V13.9416H40.715V6.07861Z" fill="#A0A0A0"/>
<path d="M47.856 6.07861H49.101V13.9416H47.856V6.07861Z" fill="#A0A0A0"/>
<path d="M55 5.93848H56.244V13.9385H55V5.93848Z" fill="#A0A0A0"/>
<path d="M62.14 6.07861H63.385V13.9416H62.14V6.07861Z" fill="#A0A0A0"/>
<path d="M69.28 6.07861H70.524V13.9416H69.28V6.07861Z" fill="#A0A0A0"/>
<path d="M76.43 33.8486H77.674V41.2546H76.43V33.8486Z" fill="#A0A0A0"/>
<path d="M76.43 6.07861H77.674V13.9416H76.43V6.07861Z" fill="#A0A0A0"/>
<path d="M83.57 34.1104H84.813V41.2514H83.57V34.1104Z" fill="#A0A0A0"/>
<path d="M83.57 6.48145H84.813V13.9414H83.57V6.48145Z" fill="#A0A0A0"/>
<path d="M90.71 33.8486H91.954V41.2546H90.71V33.8486Z" fill="#A0A0A0"/>
<path d="M90.71 6.48145H91.954V13.9414H90.71V6.48145Z" fill="#A0A0A0"/>
<path d="M95.78 27.1206H97.023V34.1146H95.78V27.1206Z" fill="#A0A0A0"/>
<path d="M97.85 6.48145H99.093V13.9414H97.85V6.48145Z" fill="#A0A0A0"/>
<path d="M104.99 6.82861H106.232V13.6646H104.99V6.82861Z" fill="#A0A0A0"/>
<path d="M26.659 20.8203H27.902V26.9573H26.659V20.8203Z" fill="#A0A0A0"/>
<path d="M33.799 20.8203H35.042V27.2073H33.799V20.8203Z" fill="#A0A0A0"/>
<path d="M40.94 20.5083H42.184V27.2073H40.94V20.5083Z" fill="#A0A0A0"/>
<path d="M48.08 20.1465H49.322V27.2065H48.08V20.1465Z" fill="#A0A0A0"/>
<path d="M55.23 20.1465H56.472V27.2065H55.23V20.1465Z" fill="#A0A0A0"/>
<path d="M62.37 20.1465H63.615V27.2065H62.37V20.1465Z" fill="#A0A0A0"/>
<path d="M69.5099 20.0205H70.7509V27.2085H69.5099V20.0205Z" fill="#A0A0A0"/>
<path d="M76.651 20.1465H77.893V27.2065H76.651V20.1465Z" fill="#A0A0A0"/>
<path d="M83.792 20.1465H85.035V27.2065H83.792V20.1465Z" fill="#A0A0A0"/>
<path d="M90.935 20.1465H92.177V27.2065H90.935V20.1465Z" fill="#A0A0A0"/>
<path d="M98.08 20.5083H99.324V27.2073H98.08V20.5083Z" fill="#A0A0A0"/>
<path d="M14.905 27.0005H16.149V33.8445H14.905V27.0005Z" fill="#A0A0A0"/>
<path d="M19.465 20.3911H20.707V27.0041H19.465V20.3911Z" fill="#A0A0A0"/>
<path d="M14.905 13.4023H16.149V20.3903H14.905V13.4023Z" fill="#A0A0A0"/>
<path d="M22.04 27.1201H23.287V33.8471H22.04V27.1201Z" fill="#A0A0A0"/>
<path d="M22.04 13.4023H23.287V20.3903H22.04V13.4023Z" fill="#A0A0A0"/>
<path d="M29.188 27.0005H30.432V33.8445H29.188V27.0005Z" fill="#A0A0A0"/>
<path d="M29.188 13.4023H30.432V20.3903H29.188V13.4023Z" fill="#A0A0A0"/>
<path d="M36.331 27.0005H37.574V33.8445H36.331V27.0005Z" fill="#A0A0A0"/>
<path d="M36.331 13.4023H37.574V20.1603H36.331V13.4023Z" fill="#A0A0A0"/>
<path d="M43.471 27.1201H44.715V33.8471H43.471V27.1201Z" fill="#A0A0A0"/>
<path d="M43.471 13.4023H44.715V20.1603H43.471V13.4023Z" fill="#A0A0A0"/>
<path d="M50.616 27.1201H51.858V33.8471H50.616V27.1201Z" fill="#A0A0A0"/>
<path d="M50.616 13.4023H51.858V20.1603H50.616V13.4023Z" fill="#A0A0A0"/>
<path d="M57.756 27.0005H58.998V33.8445H57.756V27.0005Z" fill="#A0A0A0"/>
<path d="M57.756 13.4023H58.998V20.1603H57.756V13.4023Z" fill="#A0A0A0"/>
<path d="M64.899 27.1201H66.141V33.8471H64.899V27.1201Z" fill="#A0A0A0"/>
<path d="M64.899 13.4023H66.141V20.1603H64.899V13.4023Z" fill="#A0A0A0"/>
<path d="M72.04 27.1201H73.285V33.8471H72.04V27.1201Z" fill="#A0A0A0"/>
<path d="M72.04 13.4023H73.285V20.1603H72.04V13.4023Z" fill="#A0A0A0"/>
<path d="M79.18 27.1201H80.421V33.8471H79.18V27.1201Z" fill="#A0A0A0"/>
<path d="M79.18 13.4023H80.421V20.1603H79.18V13.4023Z" fill="#A0A0A0"/>
<path d="M86.32 27.0005H87.563V33.8445H86.32V27.0005Z" fill="#A0A0A0"/>
<path d="M86.32 13.4023H87.563V20.1603H86.32V13.4023Z" fill="#A0A0A0"/>
<path d="M93.46 13.4023H94.705V20.1603H93.46V13.4023Z" fill="#A0A0A0"/>
<path d="M100.61 13.4023H101.852V20.1603H100.61V13.4023Z" fill="#A0A0A0"/>
</g>
<path d="M59.21 0.961234C87.07 0.961234 114.924 1.46123 115.925 2.46323C116.965 3.50423 117.461 14.4502 117.421 24.9942C117.461 35.5412 116.963 46.4962 115.925 47.5352C114.925 48.5352 87.025 49.0392 59.141 49.0392C31.291 49.0392 3.457 48.5382 2.455 47.5352C1.414 46.4962 0.917996 35.5532 0.958996 25.0122C0.918996 14.4652 1.415 3.50423 2.456 2.46323C3.456 1.46323 31.335 0.961234 59.21 0.961234ZM59.21 0.000234375C44.639 0.000234375 30.97 0.133234 20.734 0.375234C2.759 0.801234 2.191 1.36723 1.777 1.78323C0.0499958 3.51023 -0.0190042 20.0022 -0.00100422 25.0132C-0.0250042 31.4232 0.0969958 46.5352 1.778 48.2132C2.19 48.6292 2.758 49.1952 20.708 49.6232C30.932 49.8632 44.581 49.9982 59.142 49.9982C73.717 49.9982 87.382 49.8632 97.638 49.6212C115.621 49.1952 116.191 48.6292 116.604 48.2132C118.332 46.4862 118.403 30.0022 118.383 24.9832C118.408 18.5712 118.283 3.45623 116.606 1.77323C116.191 1.35723 115.622 0.791234 97.663 0.365234C87.432 0.123234 73.775 -0.00976562 59.21 -0.00976562" fill="#D1D1D1"/>
</svg>
