<svg width="48" height="50" viewBox="0 0 48 50" fill="none" xmlns="http://www.w3.org/2000/svg">
<path d="M44.882 4.94404C44.862 4.91404 44.843 4.88404 44.821 4.86304C44.796 4.83604 44.762 4.81204 44.717 4.79104C42.965 3.62304 26.293 3.26904 14.667 3.52704C8.02198 3.62104 2.69198 3.93204 2.12998 4.49304C0.577978 6.04304 0.573978 36.369 2.12998 37.924C2.81198 38.606 12.063 38.986 20.481 39.069C20.69 43.95 21.071 47.234 21.622 47.788C22.231 48.393 24.946 48.772 28.315 48.94H28.317C34.779 49.258 43.659 48.791 44.827 47.628C46.813 45.643 46.837 7.71504 44.887 4.94404" fill="#E3E3E3"/>
<path d="M44.882 2.4592C44.862 2.4262 44.843 2.3972 44.821 2.3752C44.796 2.3522 44.762 2.3242 44.717 2.3032C42.965 1.1362 26.293 0.782201 14.667 1.0422C8.02198 1.1362 2.69198 1.4432 2.12998 2.0062C0.577978 3.5582 0.573978 33.8832 2.12998 35.4322C2.81198 36.1182 12.063 36.4982 20.481 36.5812C20.69 41.4632 21.071 44.7462 21.622 45.2952C22.231 45.9062 24.946 46.2892 28.315 46.4532H28.317C34.779 46.7712 43.659 46.3072 44.827 45.1442C46.813 43.1542 46.837 5.2272 44.887 2.4592" fill="white"/>
<path d="M30.22 9.6001C27.853 10.6621 25.788 11.8951 24.027 13.1251C25.789 14.3561 27.853 15.5911 30.22 16.6541C30.472 14.3121 30.472 11.9431 30.22 9.6041" fill="#A0A0A0"/>
<path d="M36.662 13.746H26.388C26.047 13.746 25.767 13.469 25.767 13.125C25.767 12.783 26.047 12.506 26.388 12.506H36.036V9.6C36.036 9.252 36.315 8.979 36.661 8.979C37.001 8.979 37.278 9.252 37.278 9.6V13.125C37.279 13.469 37.001 13.746 36.662 13.746Z" fill="#A0A0A0"/>
<path d="M22.289 0.961C32.508 0.961 43.329 1.376 44.719 2.303C44.764 2.324 44.797 2.352 44.823 2.375C44.844 2.396 44.864 2.426 44.884 2.459C45.884 3.877 46.363 14.569 46.327 24.898C46.368 35.517 45.87 46.582 44.823 47.627C43.897 48.553 38.087 49.039 32.496 49.039C31.059 49.039 29.638 49.006 28.313 48.941V48.939C24.942 48.771 22.227 48.392 21.618 47.787C21.067 47.233 20.686 43.949 20.477 39.068C12.059 38.986 2.80798 38.605 2.12598 37.923C1.30898 37.105 0.923979 28.325 0.964979 19.964C0.922979 11.598 1.30798 2.824 2.12498 2.006C2.68698 1.444 8.01698 1.136 14.663 1.042C17.05 0.988 19.649 0.961 22.289 0.961ZM22.289 0C19.623 0 17.05 0.027 14.643 0.08C2.52298 0.252 1.82198 0.949 1.44498 1.326C0.0649787 2.703 -0.0230214 14.822 0.00397862 19.971C-0.0220214 25.107 0.0659786 37.225 1.44698 38.604C1.74998 38.907 2.66598 39.823 19.557 40.02C19.922 47.452 20.578 48.11 20.936 48.467C21.245 48.774 22.063 49.586 28.202 49.897C28.223 49.899 28.245 49.901 28.266 49.902C29.59 49.966 31.014 50 32.494 50C35.147 50 43.927 49.877 45.504 48.309C47.242 46.571 47.311 29.949 47.289 24.895C47.301 21.475 47.279 4.315 45.687 1.93C45.636 1.85 45.584 1.782 45.534 1.724C45.508 1.696 45.48 1.67 45.451 1.643C45.369 1.575 45.287 1.517 45.199 1.469C42.898 0.106 27.109 0 22.291 0" fill="#D1D1D1"/>
</svg>
