<svg width="80" height="25" viewBox="0 0 80 25" fill="none" xmlns="http://www.w3.org/2000/svg">
<g clip-path="url(#clip0_235_10018)">
<path d="M12.5 2.08334L15.7333 9.09167L23.3979 10.001L17.7312 15.2406L19.2354 22.8115L12.5 19.0417L5.76455 22.8125L7.26872 15.2417L1.60205 10L9.26768 9.09063L12.5 2.08334Z" stroke="#EEEBFA" stroke-linejoin="round"/>
<mask id="mask0_235_10018" style="mask-type:alpha" maskUnits="userSpaceOnUse" x="56" y="1" width="23" height="23">
<path d="M67.5 2.08334L70.7333 9.09167L78.3979 10.001L72.7312 15.2406L74.2354 22.8115L67.5 19.0417L60.7646 22.8125L62.2687 15.2417L56.6021 10L64.2677 9.09063L67.5 2.08334Z" fill="#D9D9D9" stroke="#EEEBFA" stroke-linejoin="round"/>
</mask>
<g mask="url(#mask0_235_10018)">
<rect x="56" y="1" width="23" height="23" fill="#FF9200"/>
</g>
</g>
<rect x="0.5" y="-0.5" width="79" height="24" rx="4.5" transform="matrix(1 0 0 -1 0 24)" stroke="#9747FF" stroke-dasharray="10 5"/>
<defs>
<clipPath id="clip0_235_10018">
<rect width="80" height="25" rx="5" transform="matrix(1 0 0 -1 0 25)" fill="white"/>
</clipPath>
</defs>
</svg>
