<svg width="25" height="25" viewBox="0 0 25 25" fill="none" xmlns="http://www.w3.org/2000/svg">
<path d="M22.3691 5.2627C22.2576 4.60524 21.9443 3.99873 21.4728 3.52719C21.0013 3.05564 20.3947 2.74241 19.7373 2.63087C16.5761 2.09474 10.6172 1.84962 6.23435 6.23438C1.85154 10.6191 2.0947 16.5762 2.63084 19.7373C2.74267 20.3955 3.05663 21.0025 3.52912 21.4741C4.00161 21.9457 4.6092 22.2585 5.26756 22.3691C6.37512 22.558 7.49654 22.6541 8.6201 22.6563C11.7539 22.6563 15.6562 21.875 18.7656 18.7656C23.1494 14.3828 22.9053 8.42384 22.3691 5.2627ZM16.3525 3.89552C17.4 3.89921 18.4453 3.99068 19.4775 4.16895C19.8155 4.22669 20.1273 4.38805 20.3696 4.63071C20.6119 4.87337 20.7728 5.18534 20.8301 5.52345C21.0315 6.69125 21.1198 7.87578 21.0937 9.06055L15.9385 3.90626C16.0752 3.89845 16.2109 3.89649 16.3525 3.89649V3.89552ZM5.52342 20.8301C5.18535 20.7726 4.8735 20.6115 4.63101 20.369C4.38853 20.1265 4.2274 19.8146 4.1699 19.4766C3.96841 18.3088 3.88011 17.1242 3.90623 15.9395L9.06052 21.0938C7.87574 21.1204 6.69116 21.0321 5.52342 20.8301ZM17.6621 17.6621C16.5283 18.7949 14.4131 20.3701 11.083 20.9111L4.08885 13.917C4.62986 10.5869 6.20506 8.47169 7.33787 7.3379C8.47068 6.20411 10.5859 4.62892 13.916 4.0879L20.9111 11.083C20.3701 14.4131 18.7949 16.5283 17.6621 17.6621ZM16.1758 8.82423C16.3222 8.97073 16.4044 9.16936 16.4044 9.37647C16.4044 9.58358 16.3222 9.78222 16.1758 9.92872L14.7754 11.3281L15.3945 11.9473C15.4717 12.0187 15.5337 12.105 15.5767 12.2009C15.6198 12.2969 15.643 12.4006 15.645 12.5057C15.647 12.6109 15.6278 12.7154 15.5885 12.8129C15.5491 12.9104 15.4905 12.999 15.4161 13.0734C15.3417 13.1477 15.2531 13.2063 15.1555 13.2455C15.0579 13.2848 14.9534 13.3039 14.8483 13.3018C14.7431 13.2997 14.6395 13.2764 14.5435 13.2332C14.4476 13.1901 14.3614 13.1281 14.29 13.0508L13.6719 12.4326L12.4326 13.6719L13.0517 14.291C13.129 14.3624 13.1911 14.4486 13.2342 14.5445C13.2773 14.6405 13.3006 14.7441 13.3027 14.8493C13.3049 14.9544 13.2857 15.0589 13.2465 15.1565C13.2072 15.2541 13.1487 15.3427 13.0743 15.4171C13 15.4915 12.9114 15.5501 12.8139 15.5895C12.7163 15.6288 12.6118 15.6481 12.5067 15.646C12.4015 15.644 12.2979 15.6208 12.2019 15.5777C12.1059 15.5347 12.0196 15.4727 11.9482 15.3955L11.3281 14.7754L9.92771 16.1758C9.85589 16.2514 9.76966 16.3118 9.6741 16.3536C9.57854 16.3953 9.47559 16.4175 9.37133 16.4189C9.26706 16.4202 9.16357 16.4007 9.06698 16.3614C8.97038 16.3221 8.88263 16.2638 8.8089 16.1901C8.73516 16.1164 8.67693 16.0286 8.63764 15.932C8.59836 15.8354 8.5788 15.732 8.58014 15.6277C8.58147 15.5234 8.60367 15.4205 8.64542 15.3249C8.68716 15.2294 8.74762 15.1431 8.82322 15.0713L10.2246 13.6719L9.60545 13.0527C9.46846 12.9044 9.39421 12.7088 9.39826 12.507C9.40231 12.3051 9.48435 12.1127 9.62717 11.97C9.76999 11.8273 9.96252 11.7454 10.1644 11.7416C10.3662 11.7377 10.5617 11.8121 10.7099 11.9492L11.3291 12.5684L12.5674 11.3281L11.9482 10.709C11.8111 10.5608 11.7367 10.3653 11.7406 10.1634C11.7444 9.96157 11.8263 9.76905 11.969 9.62622C12.1117 9.4834 12.3041 9.40136 12.506 9.39731C12.7078 9.39326 12.9034 9.46751 13.0517 9.6045L13.6719 10.2246L15.0722 8.82423C15.2187 8.67812 15.4171 8.59607 15.624 8.59607C15.8309 8.59607 16.0293 8.67812 16.1758 8.82423Z" fill="#EEEBFA"/>
</svg>
