<svg width="25" height="25" viewBox="0 0 25 25" fill="none" xmlns="http://www.w3.org/2000/svg">
<path d="M7.29158 5.20834H23.9583V9.375H22.9166V10.4167H16.6666C16.3903 10.4167 16.1254 10.5264 15.93 10.7218C15.7347 10.9171 15.6249 11.1821 15.6249 11.4583V12.5C15.6249 13.0525 15.4054 13.5824 15.0147 13.9731C14.624 14.3638 14.0941 14.5833 13.5416 14.5833H10.0208C9.62492 14.5833 9.26033 14.8125 9.08325 15.1667L6.53117 20.2604C6.35408 20.6146 5.99992 20.8333 5.60408 20.8333H2.08325C2.08325 20.8333 -1.04175 20.8333 3.12492 14.5833C3.12492 14.5833 6.24992 10.4167 2.08325 10.4167V5.20834H3.12492L3.64575 4.16667H6.77075L7.29158 5.20834ZM14.5833 12.5V11.4583C14.5833 11.1821 14.4735 10.9171 14.2782 10.7218C14.0828 10.5264 13.8179 10.4167 13.5416 10.4167H12.4999C12.4999 10.4167 11.4583 11.4583 12.4999 12.5C11.9474 12.5 11.4175 12.2805 11.0268 11.8898C10.6361 11.4991 10.4166 10.9692 10.4166 10.4167C10.1403 10.4167 9.87537 10.5264 9.68002 10.7218C9.48466 10.9171 9.37492 11.1821 9.37492 11.4583V12.5C9.37492 12.7763 9.48466 13.0412 9.68002 13.2366C9.87537 13.4319 10.1403 13.5417 10.4166 13.5417H13.5416C13.8179 13.5417 14.0828 13.4319 14.2782 13.2366C14.4735 13.0412 14.5833 12.7763 14.5833 12.5Z" fill="#EEEBFA"/>
</svg>
