<svg width="25" height="25" viewBox="0 0 25 25" fill="none" xmlns="http://www.w3.org/2000/svg">
<path d="M13.5417 7.8125C13.5417 8.08877 13.432 8.35372 13.2367 8.54907C13.0413 8.74442 12.7763 8.85417 12.5001 8.85417C12.2238 8.85417 11.9589 8.74442 11.7635 8.54907C11.5682 8.35372 11.4584 8.08877 11.4584 7.8125C11.4584 7.53623 11.5682 7.27128 11.7635 7.07593C11.9589 6.88058 12.2238 6.77083 12.5001 6.77083C12.7763 6.77083 13.0413 6.88058 13.2367 7.07593C13.432 7.27128 13.5417 7.53623 13.5417 7.8125ZM10.4167 11.7188C10.4167 11.5116 10.4991 11.3128 10.6456 11.1663C10.7921 11.0198 10.9908 10.9375 11.198 10.9375H12.7605C12.9677 10.9375 13.1664 11.0198 13.3129 11.1663C13.4594 11.3128 13.5417 11.5116 13.5417 11.7188V16.1458H14.323C14.5302 16.1458 14.7289 16.2281 14.8754 16.3747C15.0219 16.5212 15.1042 16.7199 15.1042 16.9271C15.1042 17.1343 15.0219 17.333 14.8754 17.4795C14.7289 17.626 14.5302 17.7083 14.323 17.7083H11.198C10.9908 17.7083 10.7921 17.626 10.6456 17.4795C10.4991 17.333 10.4167 17.1343 10.4167 16.9271C10.4167 16.7199 10.4991 16.5212 10.6456 16.3747C10.7921 16.2281 10.9908 16.1458 11.198 16.1458H11.9792V12.5H11.198C10.9908 12.5 10.7921 12.4177 10.6456 12.2712C10.4991 12.1247 10.4167 11.926 10.4167 11.7188Z" fill="#EEEBFA"/>
<path d="M12.5001 1.04167C18.8282 1.04167 23.9584 6.17187 23.9584 12.5C23.9584 18.8281 18.8282 23.9583 12.5001 23.9583C6.17196 23.9583 1.04175 18.8281 1.04175 12.5C1.04175 6.17187 6.17196 1.04167 12.5001 1.04167ZM2.60425 12.5C2.60425 15.1245 3.64684 17.6416 5.50267 19.4974C7.3585 21.3532 9.87554 22.3958 12.5001 22.3958C15.1246 22.3958 17.6417 21.3532 19.4975 19.4974C21.3533 17.6416 22.3959 15.1245 22.3959 12.5C22.3959 9.87546 21.3533 7.35842 19.4975 5.50259C17.6417 3.64676 15.1246 2.60417 12.5001 2.60417C9.87554 2.60417 7.3585 3.64676 5.50267 5.50259C3.64684 7.35842 2.60425 9.87546 2.60425 12.5Z" fill="#EEEBFA"/>
</svg>
