<svg width="25" height="25" viewBox="0 0 25 25" fill="none" xmlns="http://www.w3.org/2000/svg">
<path d="M11.4583 17.7083H7.29159C5.85061 17.7083 4.62214 17.2003 3.60617 16.1844C2.5902 15.1684 2.08256 13.9403 2.08325 12.5C2.08325 11.059 2.59124 9.83055 3.60721 8.81458C4.62318 7.79861 5.85131 7.29097 7.29159 7.29166H11.4583V9.375H7.29159C6.42353 9.375 5.68568 9.67882 5.07804 10.2865C4.47041 10.8941 4.16659 11.6319 4.16659 12.5C4.16659 13.3681 4.47041 14.1059 5.07804 14.7135C5.68568 15.3212 6.42353 15.625 7.29159 15.625H11.4583V17.7083ZM8.33325 13.5417V11.4583H16.6666V13.5417H8.33325ZM13.5416 17.7083V15.625H17.7083C18.5763 15.625 19.3142 15.3212 19.9218 14.7135C20.5294 14.1059 20.8333 13.3681 20.8333 12.5C20.8333 11.6319 20.5294 10.8941 19.9218 10.2865C19.3142 9.67882 18.5763 9.375 17.7083 9.375H13.5416V7.29166H17.7083C19.1492 7.29166 20.3777 7.79965 21.3937 8.81562C22.4096 9.8316 22.9173 11.0597 22.9166 12.5C22.9166 13.941 22.4086 15.1694 21.3926 16.1854C20.3767 17.2014 19.1485 17.709 17.7083 17.7083H13.5416Z" fill="#EEEBFA"/>
</svg>
