<svg width="337" height="287" viewBox="0 0 337 287" fill="none" xmlns="http://www.w3.org/2000/svg">
<g filter="url(#filter0_d_201_6935)">
<path d="M225.667 120.501L213.083 143.668H185.583L167 154.335L148.417 143.668H119.917L108.333 120.501L42 82.168L89.9167 200.668H244.083L292 82.168L225.667 120.501Z" fill="url(#paint0_radial_201_6935)"/>
<path d="M225.667 120.498L167.001 154.331L108.334 120.498L89.9175 200.665H244.084L225.667 120.498Z" fill="#DF6400"/>
<path d="M167.001 10L244.084 200.667H89.9175L167.001 10Z" fill="url(#paint1_linear_201_6935)"/>
<path d="M14.008 266.504C12.7387 266.504 11.768 266.149 11.096 265.44C10.424 264.731 10.088 263.741 10.088 262.472V230.048C10.088 228.779 10.4427 227.789 11.152 227.08C11.8987 226.371 12.9067 226.016 14.176 226.016C15.296 226.016 16.1733 226.24 16.808 226.688C17.48 227.099 18.096 227.827 18.656 228.872L31.592 252.504H29.688L42.624 228.872C43.184 227.827 43.7813 227.099 44.416 226.688C45.088 226.24 45.9653 226.016 47.048 226.016C48.3173 226.016 49.288 226.371 49.96 227.08C50.6693 227.789 51.024 228.779 51.024 230.048V262.472C51.024 263.741 50.688 264.731 50.016 265.44C49.344 266.149 48.3733 266.504 47.104 266.504C45.8347 266.504 44.8453 266.149 44.136 265.44C43.464 264.731 43.128 263.741 43.128 262.472V239.792H44.36L33.944 258.44C33.496 259.149 33.0107 259.691 32.488 260.064C32.0027 260.4 31.3493 260.568 30.528 260.568C29.7067 260.568 29.0347 260.381 28.512 260.008C27.9893 259.635 27.5227 259.112 27.112 258.44L16.584 239.736H17.928V262.472C17.928 263.741 17.592 264.731 16.92 265.44C16.2853 266.149 15.3147 266.504 14.008 266.504ZM67.5987 266.616C65.5827 266.616 63.772 266.224 62.1667 265.44C60.5614 264.656 59.3107 263.592 58.4147 262.248C57.5187 260.904 57.0707 259.392 57.0707 257.712C57.0707 255.696 57.5934 254.109 58.6387 252.952C59.684 251.757 61.3827 250.917 63.7347 250.432C66.0867 249.909 69.204 249.648 73.0867 249.648H76.0547V254.016H73.1427C71.2387 254.016 69.6894 254.128 68.4947 254.352C67.3374 254.539 66.4974 254.875 65.9747 255.36C65.4894 255.845 65.2467 256.517 65.2467 257.376C65.2467 258.421 65.6014 259.28 66.3107 259.952C67.0574 260.624 68.1214 260.96 69.5027 260.96C70.5854 260.96 71.5374 260.717 72.3587 260.232C73.2174 259.709 73.8894 259.019 74.3747 258.16C74.86 257.264 75.1027 256.256 75.1027 255.136V248.696C75.1027 247.053 74.7294 245.896 73.9827 245.224C73.236 244.515 71.9667 244.16 70.1747 244.16C69.1667 244.16 68.0654 244.291 66.8707 244.552C65.7134 244.776 64.4254 245.168 63.0067 245.728C62.1854 246.101 61.4574 246.195 60.8227 246.008C60.188 245.784 59.7027 245.411 59.3667 244.888C59.0307 244.328 58.8627 243.731 58.8627 243.096C58.8627 242.424 59.0494 241.789 59.4227 241.192C59.796 240.557 60.412 240.091 61.2707 239.792C63.0254 239.083 64.668 238.597 66.1987 238.336C67.7667 238.075 69.204 237.944 70.5107 237.944C73.3854 237.944 75.7374 238.373 77.5667 239.232C79.4334 240.053 80.8334 241.341 81.7667 243.096C82.7 244.813 83.1667 247.035 83.1667 249.76V262.192C83.1667 263.573 82.8307 264.637 82.1587 265.384C81.4867 266.131 80.516 266.504 79.2467 266.504C77.9774 266.504 76.988 266.131 76.2787 265.384C75.6067 264.637 75.2707 263.573 75.2707 262.192V260.12L75.6627 260.456C75.4387 261.725 74.9534 262.827 74.2067 263.76C73.4974 264.656 72.5827 265.365 71.4627 265.888C70.3427 266.373 69.0547 266.616 67.5987 266.616ZM92.3866 266.392C91.3412 266.392 90.5012 266.112 89.8666 265.552C89.2319 264.955 88.8959 264.208 88.8586 263.312C88.8586 262.416 89.2319 261.501 89.9786 260.568L98.6586 249.928V253.736L90.5946 243.88C89.8106 242.909 89.4372 241.976 89.4746 241.08C89.5119 240.184 89.8479 239.456 90.4826 238.896C91.1172 238.336 91.9572 238.056 93.0026 238.056C94.0106 238.056 94.8506 238.224 95.5226 238.56C96.1946 238.896 96.8292 239.456 97.4266 240.24L103.419 247.912H100.451L106.443 240.24C107.077 239.456 107.731 238.896 108.403 238.56C109.075 238.224 109.896 238.056 110.867 238.056C111.912 238.056 112.752 238.355 113.387 238.952C114.021 239.512 114.339 240.24 114.339 241.136C114.376 242.032 114.003 242.947 113.219 243.88L105.155 253.736V249.928L113.891 260.568C114.675 261.464 115.048 262.36 115.011 263.256C114.973 264.152 114.619 264.899 113.947 265.496C113.312 266.093 112.472 266.392 111.427 266.392C110.419 266.392 109.579 266.224 108.907 265.888C108.272 265.515 107.637 264.955 107.003 264.208L100.451 255.864H103.307L96.7546 264.208C96.1572 264.917 95.5226 265.459 94.8506 265.832C94.2159 266.205 93.3946 266.392 92.3866 266.392ZM125.012 266.448C123.63 266.448 122.566 266.056 121.82 265.272C121.11 264.451 120.756 263.312 120.756 261.856V242.704C120.756 241.211 121.11 240.072 121.82 239.288C122.566 238.467 123.63 238.056 125.012 238.056C126.356 238.056 127.382 238.467 128.092 239.288C128.838 240.072 129.212 241.211 129.212 242.704V261.856C129.212 263.312 128.857 264.451 128.148 265.272C127.438 266.056 126.393 266.448 125.012 266.448ZM125.012 233.464C123.444 233.464 122.23 233.109 121.372 232.4C120.55 231.653 120.14 230.608 120.14 229.264C120.14 227.883 120.55 226.837 121.372 226.128C122.23 225.381 123.444 225.008 125.012 225.008C126.58 225.008 127.774 225.381 128.596 226.128C129.417 226.837 129.828 227.883 129.828 229.264C129.828 230.608 129.417 231.653 128.596 232.4C127.774 233.109 126.58 233.464 125.012 233.464ZM151.325 266.448C150.055 266.485 149.066 266.149 148.357 265.44C147.647 264.731 147.293 263.816 147.293 262.696C147.293 261.837 147.554 261.091 148.077 260.456C148.562 259.784 149.29 259.429 150.261 259.392L151.885 259.28C153.378 259.168 154.498 258.739 155.245 257.992C155.991 257.245 156.365 256.107 156.365 254.576V230.44C156.365 229.021 156.738 227.939 157.485 227.192C158.231 226.408 159.295 226.016 160.677 226.016C162.095 226.016 163.178 226.408 163.925 227.192C164.671 227.939 165.045 229.021 165.045 230.44V254.464C165.045 256.928 164.597 259.019 163.701 260.736C162.842 262.416 161.535 263.723 159.781 264.656C158.026 265.589 155.861 266.149 153.285 266.336L151.325 266.448ZM182.353 266.616C180.038 266.616 178.115 266.187 176.585 265.328C175.054 264.469 173.915 263.181 173.169 261.464C172.459 259.709 172.105 257.544 172.105 254.968V242.312C172.105 240.893 172.459 239.829 173.169 239.12C173.915 238.411 174.961 238.056 176.305 238.056C177.649 238.056 178.694 238.411 179.441 239.12C180.187 239.829 180.561 240.893 180.561 242.312V255.192C180.561 256.835 180.897 258.067 181.569 258.888C182.241 259.672 183.305 260.064 184.761 260.064C186.366 260.064 187.673 259.504 188.681 258.384C189.726 257.227 190.249 255.715 190.249 253.848V242.312C190.249 240.893 190.603 239.829 191.313 239.12C192.059 238.411 193.105 238.056 194.449 238.056C195.83 238.056 196.875 238.411 197.585 239.12C198.331 239.829 198.705 240.893 198.705 242.312V262.192C198.705 265.067 197.342 266.504 194.617 266.504C193.273 266.504 192.246 266.131 191.537 265.384C190.827 264.637 190.473 263.573 190.473 262.192V258.44L191.313 260.624C190.491 262.528 189.315 264.003 187.785 265.048C186.254 266.093 184.443 266.616 182.353 266.616ZM219.528 266.616C216.28 266.616 213.48 266.037 211.128 264.88C208.813 263.685 207.021 262.024 205.752 259.896C204.52 257.731 203.904 255.192 203.904 252.28C203.904 249.443 204.501 246.96 205.696 244.832C206.891 242.667 208.552 240.987 210.68 239.792C212.845 238.56 215.291 237.944 218.016 237.944C219.995 237.944 221.787 238.28 223.392 238.952C224.997 239.587 226.379 240.52 227.536 241.752C228.693 242.947 229.571 244.421 230.168 246.176C230.765 247.893 231.064 249.816 231.064 251.944C231.064 252.653 230.84 253.195 230.392 253.568C229.944 253.904 229.291 254.072 228.432 254.072H210.848V249.704H224.96L224.064 250.488C224.064 248.957 223.84 247.688 223.392 246.68C222.944 245.635 222.291 244.851 221.432 244.328C220.611 243.805 219.584 243.544 218.352 243.544C216.971 243.544 215.795 243.861 214.824 244.496C213.853 245.131 213.107 246.045 212.584 247.24C212.061 248.435 211.8 249.872 211.8 251.552V252C211.8 254.837 212.453 256.928 213.76 258.272C215.104 259.616 217.083 260.288 219.696 260.288C220.592 260.288 221.619 260.176 222.776 259.952C223.933 259.728 225.016 259.373 226.024 258.888C226.883 258.477 227.648 258.347 228.32 258.496C228.992 258.608 229.515 258.907 229.888 259.392C230.261 259.877 230.467 260.437 230.504 261.072C230.579 261.707 230.448 262.341 230.112 262.976C229.776 263.573 229.216 264.077 228.432 264.488C227.163 265.197 225.725 265.72 224.12 266.056C222.552 266.429 221.021 266.616 219.528 266.616ZM249.198 276.696C247.182 276.696 245.241 276.528 243.374 276.192C241.545 275.856 239.921 275.352 238.502 274.68C237.644 274.307 237.028 273.821 236.654 273.224C236.318 272.627 236.169 271.992 236.206 271.32C236.281 270.648 236.505 270.051 236.878 269.528C237.289 269.005 237.793 268.632 238.39 268.408C238.988 268.221 239.622 268.277 240.294 268.576C241.937 269.323 243.449 269.808 244.83 270.032C246.249 270.256 247.462 270.368 248.47 270.368C250.86 270.368 252.652 269.827 253.846 268.744C255.041 267.661 255.638 266 255.638 263.76V259.504H256.142C255.582 261.221 254.425 262.621 252.67 263.704C250.916 264.787 248.974 265.328 246.846 265.328C244.382 265.328 242.236 264.768 240.406 263.648C238.577 262.491 237.158 260.885 236.15 258.832C235.142 256.741 234.638 254.333 234.638 251.608C234.638 249.555 234.918 247.688 235.478 246.008C236.076 244.328 236.897 242.891 237.942 241.696C239.025 240.501 240.313 239.587 241.806 238.952C243.337 238.28 245.017 237.944 246.846 237.944C249.049 237.944 250.99 238.485 252.67 239.568C254.388 240.613 255.526 241.995 256.086 243.712L255.526 245.504V242.312C255.526 240.931 255.881 239.885 256.59 239.176C257.337 238.429 258.382 238.056 259.726 238.056C261.07 238.056 262.097 238.429 262.806 239.176C263.516 239.885 263.87 240.931 263.87 242.312V262.808C263.87 267.4 262.601 270.853 260.062 273.168C257.561 275.52 253.94 276.696 249.198 276.696ZM249.366 259C250.636 259 251.718 258.701 252.614 258.104C253.548 257.507 254.276 256.667 254.798 255.584C255.321 254.464 255.582 253.139 255.582 251.608C255.582 249.293 255.004 247.501 253.846 246.232C252.726 244.925 251.233 244.272 249.366 244.272C248.097 244.272 246.996 244.571 246.062 245.168C245.129 245.728 244.401 246.568 243.878 247.688C243.393 248.771 243.15 250.077 243.15 251.608C243.15 253.923 243.71 255.733 244.83 257.04C245.95 258.347 247.462 259 249.366 259ZM283.651 266.616C280.702 266.616 278.126 266.037 275.924 264.88C273.758 263.723 272.078 262.061 270.883 259.896C269.689 257.731 269.092 255.173 269.092 252.224C269.092 250.021 269.428 248.043 270.1 246.288C270.772 244.533 271.742 243.04 273.012 241.808C274.318 240.539 275.868 239.587 277.66 238.952C279.452 238.28 281.449 237.944 283.651 237.944C286.601 237.944 289.158 238.523 291.324 239.68C293.526 240.837 295.225 242.48 296.42 244.608C297.652 246.736 298.268 249.275 298.268 252.224C298.268 254.464 297.913 256.461 297.204 258.216C296.532 259.971 295.561 261.483 294.292 262.752C293.022 264.021 291.473 264.992 289.644 265.664C287.852 266.299 285.854 266.616 283.651 266.616ZM283.651 260.288C284.884 260.288 285.948 259.989 286.844 259.392C287.74 258.795 288.449 257.917 288.972 256.76C289.494 255.565 289.756 254.053 289.756 252.224C289.756 249.499 289.196 247.501 288.076 246.232C286.956 244.925 285.481 244.272 283.651 244.272C282.457 244.272 281.393 244.552 280.46 245.112C279.564 245.672 278.854 246.549 278.332 247.744C277.846 248.901 277.604 250.395 277.604 252.224C277.604 254.949 278.164 256.984 279.284 258.328C280.404 259.635 281.86 260.288 283.651 260.288ZM313.94 266.616C312.297 266.616 310.599 266.467 308.844 266.168C307.127 265.869 305.559 265.365 304.14 264.656C303.393 264.283 302.852 263.816 302.516 263.256C302.217 262.659 302.087 262.061 302.124 261.464C302.161 260.867 302.348 260.325 302.684 259.84C303.057 259.355 303.524 259.037 304.084 258.888C304.681 258.701 305.335 258.757 306.044 259.056C307.575 259.691 308.975 260.139 310.244 260.4C311.513 260.661 312.764 260.792 313.996 260.792C315.601 260.792 316.759 260.549 317.468 260.064C318.215 259.541 318.588 258.869 318.588 258.048C318.588 257.301 318.345 256.741 317.86 256.368C317.375 255.995 316.665 255.733 315.732 255.584L309.852 254.52C307.537 254.109 305.745 253.269 304.476 252C303.244 250.693 302.628 249.032 302.628 247.016C302.628 245.149 303.151 243.544 304.196 242.2C305.241 240.819 306.679 239.773 308.508 239.064C310.375 238.317 312.484 237.944 314.836 237.944C316.516 237.944 318.065 238.093 319.484 238.392C320.903 238.691 322.265 239.176 323.572 239.848C324.244 240.184 324.711 240.632 324.972 241.192C325.271 241.752 325.364 242.331 325.252 242.928C325.177 243.525 324.953 244.067 324.58 244.552C324.207 245.037 323.721 245.355 323.124 245.504C322.564 245.653 321.911 245.579 321.164 245.28C319.969 244.72 318.868 244.328 317.86 244.104C316.852 243.843 315.881 243.712 314.948 243.712C313.268 243.712 312.055 243.992 311.308 244.552C310.561 245.075 310.188 245.747 310.188 246.568C310.188 247.203 310.393 247.744 310.804 248.192C311.252 248.603 311.924 248.883 312.82 249.032L318.7 250.096C321.127 250.507 322.975 251.328 324.244 252.56C325.513 253.755 326.148 255.397 326.148 257.488C326.148 260.325 325.028 262.565 322.788 264.208C320.585 265.813 317.636 266.616 313.94 266.616Z" fill="url(#paint2_linear_201_6935)"/>
</g>
<defs>
<filter id="filter0_d_201_6935" x="-4" y="0" width="342" height="296" filterUnits="userSpaceOnUse" color-interpolation-filters="sRGB">
<feFlood flood-opacity="0" result="BackgroundImageFix"/>
<feColorMatrix in="SourceAlpha" type="matrix" values="0 0 0 0 0 0 0 0 0 0 0 0 0 0 0 0 0 0 127 0" result="hardAlpha"/>
<feOffset/>
<feGaussianBlur stdDeviation="5"/>
<feComposite in2="hardAlpha" operator="out"/>
<feColorMatrix type="matrix" values="0 0 0 0 1 0 0 0 0 0.572549 0 0 0 0 0 0 0 0 0.5 0"/>
<feBlend mode="normal" in2="BackgroundImageFix" result="effect1_dropShadow_201_6935"/>
<feBlend mode="normal" in="SourceGraphic" in2="effect1_dropShadow_201_6935" result="shape"/>
</filter>
<radialGradient id="paint0_radial_201_6935" cx="0" cy="0" r="1" gradientUnits="userSpaceOnUse" gradientTransform="translate(167 141.421) scale(144.246 144.246)">
<stop offset="0.0264561" stop-color="#F9CA00"/>
<stop offset="0.2736" stop-color="#F7BF00"/>
<stop offset="0.7039" stop-color="#F3A300"/>
<stop offset="1" stop-color="#EF8B00"/>
</radialGradient>
<linearGradient id="paint1_linear_201_6935" x1="167.002" y1="200.647" x2="167.002" y2="10.0191" gradientUnits="userSpaceOnUse">
<stop stop-color="#F2A000"/>
<stop offset="0.2043" stop-color="#F4A900"/>
<stop offset="0.9735" stop-color="#F9CA00"/>
</linearGradient>
<linearGradient id="paint2_linear_201_6935" x1="167" y1="210" x2="167" y2="286" gradientUnits="userSpaceOnUse">
<stop stop-color="#FACB01"/>
<stop offset="1" stop-color="#F3A101"/>
</linearGradient>
</defs>
</svg>
