<svg width="25" height="25" viewBox="0 0 25 25" fill="none" xmlns="http://www.w3.org/2000/svg">
<path d="M8.71345 10.4167L11.6666 8.33333H15.3041L14.1666 5.20833H11.4582V3.125H15.6249L16.7624 6.25H20.8332V9.375H17.8999L19.4166 13.5438C20.5674 13.5803 21.6644 14.0392 22.4986 14.8328C23.3328 15.6264 23.8457 16.6993 23.9395 17.8468C24.0334 18.9944 23.7016 20.1363 23.0074 21.0549C22.3133 21.9735 21.3053 22.6045 20.1758 22.8276C19.0462 23.0506 17.8741 22.8502 16.8828 22.2644C15.8916 21.6786 15.1506 20.7485 14.8012 19.6515C14.4518 18.5544 14.5183 17.3671 14.9882 16.316C15.4581 15.2648 16.2984 14.4234 17.3489 13.9521L16.0614 10.4167H15.0749L13.427 16.5313L10.3801 17.6448C10.4901 18.5221 10.3497 19.4127 9.97508 20.2136C9.60049 21.0145 9.00701 21.6932 8.26316 22.1712C7.51932 22.6492 6.65544 22.9071 5.77127 22.9151C4.88711 22.9231 4.01872 22.6808 3.26637 22.2163C2.51402 21.7517 1.9084 21.0839 1.51943 20.2899C1.13047 19.4958 0.974015 18.6079 1.06814 17.7288C1.16227 16.8496 1.50315 16.015 2.0514 15.3213C2.59966 14.6275 3.33294 14.1031 4.16657 13.8083V12.5H2.08324V10.4167H8.71345ZM5.72907 20.8333C6.41974 20.8333 7.08212 20.559 7.5705 20.0706C8.05887 19.5822 8.33324 18.9198 8.33324 18.2292C8.33324 17.5385 8.05887 16.8761 7.5705 16.3877C7.08212 15.8994 6.41974 15.625 5.72907 15.625C5.0384 15.625 4.37602 15.8994 3.88765 16.3877C3.39927 16.8761 3.1249 17.5385 3.1249 18.2292C3.1249 18.9198 3.39927 19.5822 3.88765 20.0706C4.37602 20.559 5.0384 20.8333 5.72907 20.8333ZM19.2707 20.8333C19.9614 20.8333 20.6238 20.559 21.1122 20.0706C21.6005 19.5822 21.8749 18.9198 21.8749 18.2292C21.8749 17.5385 21.6005 16.8761 21.1122 16.3877C20.6238 15.8994 19.9614 15.625 19.2707 15.625C18.5801 15.625 17.9177 15.8994 17.4293 16.3877C16.9409 16.8761 16.6666 17.5385 16.6666 18.2292C16.6666 18.9198 16.9409 19.5822 17.4293 20.0706C17.9177 20.559 18.5801 20.8333 19.2707 20.8333Z" fill="#EEEBFA"/>
</svg>
