<svg width="25" height="25" viewBox="0 0 25 25" fill="none" xmlns="http://www.w3.org/2000/svg">
<path d="M5.87078 5.87084C6.80352 4.93793 7.92266 4.21238 9.15502 3.74162C10.3874 3.27086 11.7052 3.06549 13.0224 3.13893C14.3396 3.21237 15.6264 3.56298 16.7988 4.16783C17.9712 4.77267 19.0027 5.61814 19.826 6.64896L13.9729 12.5L19.826 18.351C19.0298 19.3462 18.0391 20.1686 16.9144 20.768C15.7896 21.3674 14.5545 21.7312 13.2844 21.8371C12.0144 21.943 10.736 21.7888 9.52756 21.384C8.31909 20.9792 7.20584 20.3322 6.25585 19.4826C5.30585 18.633 4.53906 17.5987 4.00232 16.4427C3.46558 15.2868 3.17016 14.0336 3.13412 12.7596C3.09808 11.4856 3.32217 10.2177 3.79271 9.03326C4.26324 7.84883 4.97033 6.77277 5.87078 5.87084Z" stroke="#EEEBFA" stroke-width="2" stroke-linecap="round" stroke-linejoin="round"/>
<path d="M11.9792 8.85418C12.5545 8.85418 13.0208 8.38781 13.0208 7.81251C13.0208 7.23721 12.5545 6.77084 11.9792 6.77084C11.4039 6.77084 10.9375 7.23721 10.9375 7.81251C10.9375 8.38781 11.4039 8.85418 11.9792 8.85418Z" fill="#EEEBFA" stroke="#EEEBFA" stroke-width="2" stroke-linecap="round" stroke-linejoin="round"/>
</svg>
