<svg width="25" height="25" viewBox="0 0 25 25" fill="none" xmlns="http://www.w3.org/2000/svg">
<path d="M12.5 20.8333H21.875M15.625 5.20834L18.75 8.33334M17.1875 3.64584C17.6019 3.23143 18.1639 2.99863 18.75 2.99863C19.0402 2.99863 19.3275 3.05578 19.5956 3.16683C19.8637 3.27788 20.1073 3.44064 20.3125 3.64584C20.5177 3.85103 20.6805 4.09462 20.7915 4.36272C20.9026 4.63081 20.9597 4.91815 20.9597 5.20834C20.9597 5.49852 20.9026 5.78586 20.7915 6.05395C20.6805 6.32205 20.5177 6.56564 20.3125 6.77084L7.29167 19.7917L3.125 20.8333L4.16667 16.6667L17.1875 3.64584Z" stroke="#EEEBFA" stroke-width="2" stroke-linecap="round" stroke-linejoin="round"/>
</svg>
