<svg width="25" height="25" viewBox="0 0 25 25" fill="none" xmlns="http://www.w3.org/2000/svg">
<path d="M20.6348 9.29746C20.6344 9.1785 20.6316 9.05956 20.6263 8.94072V2.19639L18.7618 4.06094C17.2357 2.19307 14.9144 1 12.3141 1C9.60811 1 7.2041 2.2916 5.68457 4.29199L8.74072 7.38027C9.03996 6.82743 9.46382 6.35185 9.97871 5.99121C10.5123 5.5749 11.2683 5.23438 12.3141 5.23438C12.4404 5.23438 12.538 5.24922 12.6096 5.27695C13.9054 5.3793 15.0285 6.09434 15.6897 7.13223L13.5264 9.29551C16.2665 9.28477 19.3619 9.27852 20.6346 9.29697" fill="#1C3AA9"/>
<path d="M12.2655 1.00029C12.1465 1.00063 12.0276 1.00346 11.9087 1.00879H5.1644L7.02895 2.87334C5.16108 4.39931 3.96802 6.7208 3.96802 9.32099C3.96802 12.027 5.25962 14.4311 7.26001 15.9507L10.3483 12.8945C9.79544 12.5953 9.31986 12.1714 8.95923 11.6564C8.54292 11.1229 8.20239 10.3669 8.20239 9.32109C8.20239 9.19482 8.21724 9.09726 8.24497 9.02558C8.34731 7.72988 9.06235 6.60674 10.1002 5.9455L12.2635 8.10879C12.2528 5.36855 12.2464 2.27314 12.265 1.00049" fill="#4285F4"/>
<path d="M3.96826 9.3208C3.96865 9.44033 3.97139 9.55918 3.97676 9.67754V16.4219L5.84131 14.5573C7.36729 16.4252 9.68877 17.6183 12.289 17.6183C14.995 17.6183 17.399 16.3267 18.9187 14.3263L15.8625 11.238C15.5632 11.7908 15.1393 12.2664 14.6244 12.6271C14.0909 13.0434 13.3349 13.3839 12.2891 13.3839C12.1628 13.3839 12.0652 13.369 11.9936 13.3412C10.6979 13.239 9.57471 12.5238 8.91348 11.486L11.0768 9.32266C8.33652 9.3334 5.24111 9.33975 3.96846 9.32129" fill="#ABABAB"/>
<path d="M5.37236 20.8406C5.16973 20.8406 4.98799 20.879 4.82725 20.9559C4.66771 21.0301 4.52769 21.1405 4.41836 21.2783C4.3083 21.4181 4.22354 21.5876 4.16416 21.7867C4.10654 21.9842 4.07764 22.2052 4.07764 22.4498V23.1549C4.07764 23.4012 4.10654 23.623 4.16416 23.8205C4.22354 24.018 4.30742 24.1865 4.41582 24.3264C4.52412 24.466 4.65508 24.5735 4.80889 24.6486C4.9626 24.7238 5.13564 24.7614 5.32783 24.7614C5.52529 24.7614 5.69824 24.7325 5.84678 24.6749C5.99707 24.6173 6.12285 24.5343 6.22412 24.4259C6.32549 24.3158 6.40322 24.1831 6.45742 24.0275C6.51338 23.8721 6.54648 23.6955 6.55703 23.4981H6.07217C6.05996 23.6501 6.03896 23.7804 6.00928 23.8887C5.97959 23.9952 5.93584 24.0835 5.87822 24.1533C5.82227 24.2215 5.74893 24.2722 5.65801 24.3054C5.56895 24.3368 5.45879 24.3525 5.32783 24.3525C5.18809 24.3525 5.06924 24.322 4.97139 24.2607C4.87354 24.1979 4.79404 24.1123 4.73291 24.0039C4.67354 23.8956 4.62979 23.7689 4.60186 23.6239C4.57568 23.4789 4.5625 23.3226 4.5625 23.1548V22.4445C4.5625 22.2646 4.57822 22.1012 4.60967 21.9544C4.64287 21.8077 4.69268 21.6827 4.75908 21.5797C4.82549 21.4766 4.90938 21.3971 5.01074 21.3411C5.11201 21.2835 5.23262 21.2547 5.37236 21.2547C5.48945 21.2547 5.58994 21.2722 5.67373 21.3071C5.75662 21.3395 5.82911 21.3939 5.8834 21.4644C5.93936 21.5342 5.98213 21.6233 6.01182 21.7316C6.0416 21.84 6.06162 21.9692 6.07217 22.1195H6.55703C6.54824 21.9134 6.51602 21.7309 6.46006 21.5718C6.4041 21.4128 6.32637 21.2791 6.22676 21.1708C6.12715 21.0624 6.00576 20.9804 5.8625 20.9244C5.7209 20.8686 5.55762 20.8406 5.37236 20.8406ZM17.2083 20.8406C17.0056 20.8406 16.8238 20.879 16.6631 20.9559C16.5035 21.0301 16.3635 21.1405 16.2542 21.2783C16.1441 21.4181 16.0595 21.5876 16 21.7867C15.9424 21.9842 15.9136 22.2052 15.9136 22.4498V23.1549C15.9136 23.4012 15.9424 23.623 16 23.8205C16.0594 24.018 16.1433 24.1865 16.2517 24.3264C16.36 24.466 16.4909 24.5735 16.6447 24.6486C16.7985 24.7238 16.9715 24.7614 17.1637 24.7614C17.3611 24.7614 17.5341 24.7325 17.6826 24.6749C17.8329 24.6173 17.9587 24.5343 18.0601 24.4259C18.1613 24.3158 18.2391 24.1831 18.2933 24.0275C18.3492 23.8721 18.3824 23.6955 18.3929 23.4981H17.908C17.8958 23.6501 17.8748 23.7804 17.8451 23.8887C17.8154 23.9952 17.7718 24.0835 17.7141 24.1533C17.6582 24.2215 17.5848 24.2722 17.4939 24.3054C17.4048 24.3368 17.2947 24.3525 17.1637 24.3525C17.0239 24.3525 16.9051 24.322 16.8072 24.2607C16.7094 24.1979 16.6299 24.1123 16.5688 24.0039C16.5094 23.8956 16.4657 23.7689 16.4377 23.6239C16.4115 23.4789 16.3984 23.3226 16.3984 23.1548V22.4445C16.3984 22.2646 16.4141 22.1012 16.4456 21.9544C16.4788 21.8077 16.5286 21.6827 16.595 21.5797C16.6614 21.4766 16.7452 21.3971 16.8466 21.3411C16.948 21.2835 17.0685 21.2547 17.2082 21.2547C17.3254 21.2547 17.4258 21.2722 17.5097 21.3071C17.5935 21.3403 17.6634 21.3927 17.7193 21.4644C17.7752 21.5342 17.818 21.6233 17.8478 21.7316C17.8774 21.84 17.8976 21.9692 17.908 22.1195H18.3929C18.3841 21.9134 18.3519 21.7309 18.2959 21.5718C18.2399 21.4128 18.1622 21.2791 18.0626 21.1708C17.963 21.0624 17.8416 20.9804 17.6983 20.9244C17.5567 20.8686 17.3935 20.8405 17.2082 20.8405L17.2083 20.8406ZM8.13496 20.8931L6.90576 24.709H7.39844L7.69463 23.713H8.98408L9.28545 24.709H9.77822L8.54639 20.8931H8.13496ZM10.2971 20.8931V24.709H10.7767V23.215H11.5131C11.6966 23.215 11.8591 23.1897 12.0006 23.1391C12.1422 23.0866 12.2609 23.0115 12.357 22.9137C12.4549 22.8158 12.5282 22.6952 12.5771 22.552C12.6279 22.4069 12.6532 22.2428 12.6532 22.0593C12.6532 21.8897 12.6278 21.7343 12.5771 21.5928C12.5283 21.4495 12.4558 21.3263 12.3597 21.2232C12.2636 21.1184 12.1438 21.0371 12.0006 20.9795C11.859 20.9219 11.6966 20.893 11.5131 20.893H10.2971V20.8931ZM13.0201 20.8931V21.3071H14.0213V24.709H14.5008V21.3071H15.5047V20.8931H13.0201ZM19.0402 20.8931V24.709H19.5197V22.9451H21.0557V24.709H21.5379V20.8931H21.0557V22.5337H19.5198V20.8931H19.0402ZM23.3566 20.8931L22.1275 24.709H22.6203L22.9164 23.713H24.2059L24.5073 24.709H25L23.7682 20.8931H23.3567H23.3566ZM10.7766 21.3071H11.5131C11.6302 21.3071 11.7297 21.328 11.8119 21.37C11.8957 21.412 11.9639 21.4679 12.0163 21.5378C12.0717 21.6102 12.1118 21.6931 12.1342 21.7814C12.1604 21.8723 12.1735 21.9667 12.1735 22.0646C12.1735 22.173 12.1604 22.2725 12.1342 22.3634C12.1117 22.4485 12.0716 22.528 12.0163 22.5966C11.9639 22.6612 11.8957 22.7118 11.8118 22.7485C11.7298 22.7853 11.6302 22.8036 11.513 22.8036H10.7767L10.7766 21.3071ZM8.33926 21.564L8.86084 23.2989H7.82041L8.33926 21.564ZM23.5611 21.564L24.0826 23.2989H23.0422L23.5611 21.564ZM0.985449 21.8208C0.864844 21.8208 0.76084 21.8514 0.673535 21.9126C0.587891 21.9737 0.516309 22.0567 0.458691 22.1615L0.450781 21.8732H0V24.709H0.463867V22.6804C0.507617 22.5598 0.569629 22.4646 0.65 22.3947C0.732031 22.3248 0.836035 22.2898 0.961816 22.2898C1.00205 22.2898 1.03789 22.2916 1.06924 22.2951C1.10078 22.2969 1.13486 22.3012 1.17148 22.3082L1.16895 21.8574C1.15799 21.8526 1.14652 21.8491 1.13477 21.8469C1.11946 21.8412 1.10371 21.8369 1.0877 21.8338C1.06949 21.8302 1.0511 21.8276 1.03262 21.826C1.0171 21.8227 1.00131 21.8209 0.985449 21.8207V21.8208ZM2.54482 21.8208C2.41025 21.8208 2.28018 21.8444 2.1543 21.8916C2.02852 21.9388 1.9167 22.0165 1.81885 22.1248C1.72275 22.2314 1.64502 22.3712 1.58564 22.5441C1.52617 22.7154 1.49648 22.926 1.49648 23.1758V23.4955C1.49648 23.7122 1.52188 23.9 1.57256 24.059C1.62314 24.218 1.69561 24.35 1.79004 24.4548C1.88644 24.5581 2.0059 24.6371 2.13867 24.6855C2.2749 24.7361 2.42773 24.7614 2.59727 24.7614C2.71953 24.7614 2.82871 24.7492 2.9249 24.7247C3.02275 24.7003 3.10918 24.6689 3.18438 24.6304C3.25468 24.5936 3.31988 24.5478 3.37832 24.4941C3.42978 24.4465 3.4763 24.3939 3.51719 24.3369L3.27607 24.0434C3.2376 24.0905 3.19658 24.1342 3.15293 24.1743C3.10918 24.2128 3.06113 24.2469 3.00879 24.2766C2.95401 24.3054 2.89589 24.3274 2.83574 24.3421C2.76623 24.3586 2.69497 24.3665 2.62354 24.3657C2.40859 24.3657 2.24346 24.2967 2.12812 24.1587C2.01455 24.0206 1.95781 23.7996 1.95781 23.4956V23.43H3.54082V23.1601C3.54082 22.9435 3.52246 22.7521 3.48574 22.5861C3.44902 22.4201 3.39053 22.2804 3.31016 22.1668C3.23194 22.055 3.12512 21.9663 3.00088 21.91C2.8751 21.8505 2.72305 21.8208 2.54482 21.8208ZM2.54482 22.2192C2.64619 22.2192 2.73008 22.2375 2.79648 22.2742C2.86217 22.3102 2.9166 22.3637 2.95371 22.4288C2.99385 22.4952 3.02275 22.5747 3.04023 22.6674C3.05938 22.7582 3.07168 22.8587 3.07686 22.9688V23.0316H1.96035C1.96738 22.8727 1.98662 22.7407 2.01797 22.6358C2.04951 22.5311 2.09053 22.448 2.14121 22.3869C2.19365 22.324 2.25391 22.2804 2.32207 22.2559C2.39364 22.2308 2.46901 22.2184 2.54482 22.2191V22.2192Z" fill="#A6A6A6"/>
</svg>
