<svg width="25" height="25" viewBox="0 0 25 25" fill="none" xmlns="http://www.w3.org/2000/svg">
<g clip-path="url(#clip0_194_2273)">
<path d="M18.3468 16.1625C19.8598 14.098 20.5374 11.5383 20.2442 8.99555C19.9509 6.45283 18.7084 4.1146 16.7652 2.44864C14.822 0.782694 12.3214 -0.088115 9.76374 0.0104368C7.20607 0.108989 4.77991 1.16963 2.97067 2.98017C1.16142 4.79071 0.102517 7.21762 0.00579536 9.77537C-0.0909262 12.3331 0.781671 14.8331 2.44901 16.7751C4.11635 18.7171 6.45548 19.9579 8.99841 20.2494C11.5413 20.5408 14.1005 19.8613 16.164 18.3469H16.1624C16.2093 18.4094 16.2593 18.4688 16.3156 18.5266L22.3312 24.5422C22.6242 24.8354 23.0216 25.0002 23.4361 25.0003C23.8506 25.0005 24.2482 24.836 24.5413 24.543C24.8345 24.25 24.9993 23.8525 24.9995 23.4381C24.9996 23.0236 24.8351 22.626 24.5421 22.3328L18.5265 16.3172C18.4706 16.2606 18.4106 16.21 18.3468 16.1625ZM18.7499 10.1563C18.7499 11.2848 18.5277 12.4023 18.0958 13.4449C17.6639 14.4876 17.0309 15.4349 16.2329 16.233C15.4349 17.031 14.4875 17.664 13.4449 18.0958C12.4022 18.5277 11.2847 18.75 10.1562 18.75C9.02764 18.75 7.91014 18.5277 6.8675 18.0958C5.82486 17.664 4.87749 17.031 4.07949 16.233C3.28149 15.4349 2.64847 14.4876 2.2166 13.4449C1.78472 12.4023 1.56244 11.2848 1.56244 10.1563C1.56244 7.87705 2.46785 5.6912 4.07949 4.07956C5.69113 2.46792 7.87698 1.5625 10.1562 1.5625C12.4354 1.5625 14.6212 2.46792 16.2329 4.07956C17.8445 5.6912 18.7499 7.87705 18.7499 10.1563Z" fill="#EEEBFA"/>
</g>
<defs>
<clipPath id="clip0_194_2273">
<rect width="25" height="25" fill="white"/>
</clipPath>
</defs>
</svg>
