<svg width="25" height="25" viewBox="0 0 25 25" fill="none" xmlns="http://www.w3.org/2000/svg">
<path d="M17.6353 17.8333L16.802 16.4167L18.3228 11.8646L19.7916 11.375L20.8333 12.1562V12.3021C20.8333 12.375 20.8645 12.4375 20.8645 12.5C20.8645 14.5521 20.177 16.3646 18.8124 17.9271L17.6353 17.8333ZM10.1562 15.625L8.72909 11.4271L12.4999 8.78125L16.2708 11.4271L14.8437 15.625H10.1562ZM12.4999 20.8646C11.5833 20.8646 10.7187 20.7187 9.89575 20.4271L9.177 18.8542L9.8645 17.7083H15.1874L15.8228 18.8542L15.1041 20.4271C14.2812 20.7187 13.4166 20.8646 12.4999 20.8646ZM6.18742 17.9271C5.63534 17.2812 5.15617 16.4167 4.74992 15.3646C4.34367 14.3021 4.13534 13.3437 4.13534 12.5C4.13534 12.4375 4.16659 12.375 4.16659 12.3021V12.1562L5.20825 11.375L6.677 11.8646L8.19784 16.4167L7.3645 17.8333L6.18742 17.9271ZM11.4583 5.51041V6.96875L7.29159 9.85416L5.89575 9.41666L5.45825 8C5.91659 7.29166 6.59367 6.58333 7.4895 5.89583C8.38534 5.20833 9.2395 4.76041 10.052 4.53124L11.4583 5.51041ZM14.9478 4.53124C15.7603 4.76041 16.6145 5.20833 17.5103 5.89583C18.4062 6.58333 19.0833 7.29166 19.5416 8L19.1041 9.41666L17.7083 9.86458L13.5416 6.97916V5.51041L14.9478 4.53124ZM5.13534 5.13541C3.12492 7.17708 2.08325 9.63541 2.08325 12.5C2.08325 15.3646 3.12492 17.8229 5.13534 19.8646C7.14575 21.9062 9.63534 22.9167 12.4999 22.9167C15.3645 22.9167 17.8228 21.875 19.8645 19.8646C21.9062 17.8542 22.9166 15.3646 22.9166 12.5C22.9166 9.63541 21.8749 7.17708 19.8645 5.13541C17.8541 3.09374 15.3645 2.08333 12.4999 2.08333C9.63534 2.08333 7.177 3.12499 5.13534 5.13541Z" fill="#EEEBFA"/>
</svg>
