<svg width="25" height="25" viewBox="0 0 25 25" fill="none" xmlns="http://www.w3.org/2000/svg">
<g clip-path="url(#clip0_138_1197)">
<path fill-rule="evenodd" clip-rule="evenodd" d="M21.0589 21.875C21.4319 21.875 21.7896 21.7516 22.0533 21.5318C22.317 21.312 22.4652 21.014 22.4652 20.7032C22.4652 20.3924 22.317 20.0943 22.0533 19.8745C21.7896 19.6547 21.4319 19.5313 21.0589 19.5313L1.37142 19.5313C0.998455 19.5313 0.640772 19.6547 0.377048 19.8745C0.113325 20.0943 -0.0348358 20.3924 -0.0348358 20.7032C-0.0348358 21.014 0.113325 21.312 0.377048 21.5318C0.640772 21.7516 0.998455 21.875 1.37142 21.875L21.0589 21.875ZM15.3089 13.5677C15.6819 13.5677 16.0396 13.4443 16.3033 13.2245C16.567 13.0047 16.7152 12.7067 16.7152 12.3959C16.7152 12.0851 16.567 11.787 16.3033 11.5672C16.0396 11.3475 15.6819 11.224 15.3089 11.224L1.37142 11.224C0.998455 11.224 0.640772 11.3475 0.377048 11.5672C0.113325 11.787 -0.0348358 12.0851 -0.0348358 12.3959C-0.0348358 12.7067 0.113325 13.0047 0.377048 13.2245C0.640772 13.4443 0.998455 13.5677 1.37142 13.5677L15.3089 13.5677ZM24.5527 15.9584C24.289 16.1778 23.9316 16.3011 23.5589 16.3011C23.1863 16.3011 22.8288 16.1778 22.5652 15.9584L19.2839 13.224L18.2902 12.3959L19.2839 11.5677L22.5652 8.83336C22.6939 8.71823 22.8492 8.62588 23.0217 8.56183C23.1942 8.49778 23.3804 8.46334 23.5692 8.46057C23.758 8.45779 23.9456 8.48673 24.1207 8.54567C24.2958 8.60461 24.4548 8.69234 24.5884 8.80362C24.7219 8.9149 24.8272 9.04745 24.8979 9.19337C24.9686 9.33929 25.0034 9.49558 25 9.65293C24.9967 9.81028 24.9554 9.96546 24.8785 10.1092C24.8016 10.253 24.6908 10.3823 24.5527 10.4896L22.2652 12.3959L24.5527 14.3021C24.816 14.5218 24.9639 14.8197 24.9639 15.1302C24.9639 15.4408 24.816 15.7386 24.5527 15.9584ZM21.0589 6.09378C21.4319 6.09378 21.7896 5.97031 22.0533 5.75055C22.317 5.53078 22.4652 5.23271 22.4652 4.92191C22.4652 4.6111 22.317 4.31304 22.0533 4.09327C21.7896 3.8735 21.4319 3.75003 21.0589 3.75003L1.37142 3.75003C0.998455 3.75003 0.640772 3.8735 0.377048 4.09327C0.113325 4.31304 -0.0348358 4.6111 -0.0348358 4.92191C-0.0348358 5.23271 0.113325 5.53078 0.377048 5.75055C0.640772 5.97031 0.998455 6.09378 1.37142 6.09378L21.0589 6.09378Z" fill="#EEEBFA"/>
</g>
<defs>
<clipPath id="clip0_138_1197">
<rect width="25" height="25" fill="white" transform="matrix(-1 0 0 -1 25 25)"/>
</clipPath>
</defs>
</svg>
