<svg xmlns="http://www.w3.org/2000/svg">
<path d="M16.468 4.96895C16.468 4.14529 16.1408 3.35537 15.5584 2.77296C14.976 2.19055 14.1861 1.86335 13.3624 1.86335C12.5387 1.86335 11.7488 2.19055 11.1664 2.77296C10.584 3.35537 10.2568 4.14529 10.2568 4.96895C10.2568 5.7926 10.584 6.58252 11.1664 7.16493C11.7488 7.74734 12.5387 8.07454 13.3624 8.07454C14.1861 8.07454 14.976 7.74734 15.5584 7.16493C16.1408 6.58252 16.468 5.7926 16.468 4.96895ZM8.39346 4.96895C8.39346 3.6511 8.91697 2.38723 9.84883 1.45537C10.7807 0.523512 12.0446 0 13.3624 0C14.6802 0 15.9441 0.523512 16.876 1.45537C17.8078 2.38723 18.3313 3.6511 18.3313 4.96895C18.3313 6.28679 17.8078 7.55066 16.876 8.48252C15.9441 9.41438 14.6802 9.93789 13.3624 9.93789C12.0446 9.93789 10.7807 9.41438 9.84883 8.48252C8.91697 7.55066 8.39346 6.28679 8.39346 4.96895ZM6.58057 18.0124H20.1442C19.7987 15.5551 17.6869 13.6646 15.1365 13.6646H11.5883C9.03787 13.6646 6.92606 15.5551 6.58057 18.0124ZM4.66675 18.7228C4.66675 14.8991 7.76457 11.8012 11.5883 11.8012H15.1365C18.9602 11.8012 22.0581 14.8991 22.0581 18.7228C22.0581 19.3595 21.5417 19.8758 20.9051 19.8758H5.8197C5.18305 19.8758 4.66675 19.3595 4.66675 18.7228Z" fill="#EEEBFA"/>
</svg>
